<svg width="184" height="184" viewBox="0 0 184 184" fill="none" xmlns="http://www.w3.org/2000/svg">
<rect width="184" height="184" rx="92" fill="url(#paint0_linear_4335_1685)"/>
<g clip-path="url(#clip0_4335_1685)">
<path d="M141.603 125.532C133.01 116.737 124.368 107.988 115.713 99.2547C114.988 98.5215 114.924 98.0034 115.375 97.0812C118.998 89.6548 120.238 81.795 119.243 73.5898C116.244 48.9057 92.1738 32.391 68.3867 38.6736C46.6869 44.4055 33.4937 66.2578 38.3316 88.4556C42.506 107.62 60.2022 121.469 79.4669 120.713C85.9154 120.459 91.9837 118.852 97.7558 115.766C100.358 118.389 102.9 120.938 105.422 123.499C111.754 129.925 118.071 136.364 124.413 142.777C128.307 146.713 133.686 147.74 138.36 145.501C146.074 141.803 147.73 131.802 141.603 125.532ZM78.3299 112.912C59.9445 112.983 44.9958 97.8046 45.0377 79.1066C45.0796 60.4379 60.2022 45.1517 78.623 45.1648C97.0149 45.1746 111.848 60.2457 111.838 78.9176C111.828 97.6123 96.8217 112.84 78.3299 112.912ZM137.374 135.816C136.417 138.691 132.948 139.753 130.574 137.912C130.32 137.713 130.088 137.485 129.863 137.253C121.552 128.814 113.242 120.374 104.935 111.931C104.768 111.758 104.613 111.576 104.555 111.507C106.694 109.418 108.739 107.421 110.788 105.42C110.695 105.303 110.604 105.185 110.511 105.068C110.743 105.28 110.988 105.482 111.21 105.707C119.462 114.088 127.711 122.476 135.973 130.85C137.361 132.261 138.028 133.848 137.374 135.816Z" fill="white"/>
<path d="M78.3785 52.6856C77.4572 52.6888 76.5328 52.7833 75.6148 52.8746C63.1077 54.1128 52.8295 65.3095 52.385 78.0833C52.4816 78.8849 52.4591 79.7256 52.7039 80.4784C53.2933 82.2869 54.9972 83.2547 56.8912 82.994C58.6563 82.7496 59.9415 81.2735 60.1637 79.302C60.3538 77.6108 60.4117 75.8739 60.8498 74.2446C63.0111 66.1763 69.9781 60.7832 78.4397 60.4932C80.7845 60.4118 82.4562 58.7303 82.4111 56.4949C82.366 54.3279 80.6493 52.679 78.3785 52.6856Z" fill="white"/>
</g>
<defs>
<linearGradient id="paint0_linear_4335_1685" x1="92" y1="0" x2="92" y2="184" gradientUnits="userSpaceOnUse">
<stop stop-color="#EC9DB2"/>
<stop offset="1" stop-color="#E16891"/>
</linearGradient>
<clipPath id="clip0_4335_1685">
<rect width="108" height="109.333" fill="white" transform="translate(37.3333 37.334)"/>
</clipPath>
</defs>
</svg>
