<svg width="182" height="182" viewBox="0 0 182 182" fill="none" xmlns="http://www.w3.org/2000/svg">
<rect width="182" height="182" rx="91" fill="url(#paint0_radial_4335_1689)"/>
<g clip-path="url(#clip0_4335_1689)">
<path d="M113.682 123.41C113.682 124.198 113.689 124.884 113.679 125.567C113.653 127.439 113.814 129.323 113.375 131.172C112.435 135.132 108.938 137.975 104.87 137.98C88.8419 137.998 72.8142 138.013 56.7891 137.973C51.7982 137.962 47.9822 133.849 48.0001 129.17C48.0818 108.334 48.0792 87.4983 48.0052 66.6624C47.9873 61.2615 52.2605 57.5641 56.5669 57.4774C58.0943 57.4468 59.6243 57.4034 61.1491 57.4162C61.9486 57.4238 62.2653 57.1306 62.1734 56.3503C62.1453 56.1004 62.1887 55.8403 62.1657 55.5878C61.8107 51.6915 64.7352 49.2129 68.4669 49.1976C69.8053 49.1925 71.1437 49.1721 72.4822 49.2052C73.1616 49.2205 73.5754 49.0165 73.9048 48.3688C75.3633 45.5052 77.7311 43.9344 80.9596 44.0084C84.1421 44.0823 86.4281 45.7296 87.7819 48.5932C88.1037 49.2766 88.4894 49.5291 89.2352 49.5061C90.8597 49.4577 92.4842 49.4755 94.1086 49.4985C97.2069 49.5418 99.4597 51.768 99.5542 54.856C99.5695 55.3328 99.6027 55.8148 99.5491 56.2865C99.4469 57.202 99.876 57.4315 100.716 57.4162C102.18 57.3907 103.644 57.3932 105.11 57.4927C110.108 57.8369 113.605 61.4553 113.669 66.4763C113.707 69.4036 113.697 72.3285 113.664 75.2558C113.656 75.9902 113.919 76.388 114.57 76.7399C122.121 80.8276 126.504 87.1668 127.799 95.6098C128.432 99.7408 127.967 103.795 126.373 107.681C126.064 108.434 126.136 108.916 126.736 109.505C130.91 113.615 135.053 117.759 139.185 121.91C142.051 124.792 142.766 128.617 141.147 132.179C139.454 135.91 135.885 138.182 131.947 137.965C129.344 137.822 127.196 136.675 125.375 134.841C121.827 131.276 118.259 127.729 114.696 124.177C114.44 123.922 114.218 123.601 113.682 123.41ZM85.2098 117.491C83.8509 116.107 82.5738 114.77 81.6441 113.166C81.3121 112.595 80.9059 112.391 80.2572 112.396C76.9444 112.419 73.629 112.407 70.3162 112.407C68.0225 112.407 65.7288 112.422 63.4351 112.399C62.061 112.384 61.2871 111.708 61.2079 110.545C61.1134 109.135 61.9001 108.304 63.4045 108.299C68.2779 108.286 73.1539 108.281 78.0273 108.304C78.8498 108.309 79.1154 108.12 78.8396 107.261C78.4616 106.083 78.1525 104.876 77.9328 103.66C77.8128 102.989 77.5114 102.842 76.9137 102.847C74.6507 102.865 72.3902 102.854 70.1272 102.854C67.928 102.854 65.7314 102.867 63.5322 102.847C62.2219 102.834 61.4173 102.253 61.2334 101.263C60.9576 99.7816 61.7698 98.7539 63.2947 98.7463C67.7237 98.7259 72.1527 98.7386 76.5817 98.7335C77.8332 98.7335 77.8383 98.7284 77.8383 97.4483C77.8383 96.4946 77.8485 95.5461 78.0657 94.6051C78.3645 93.3123 78.3338 93.2893 76.9571 93.2893C72.689 93.2868 68.4184 93.2919 64.1503 93.2842C63.7391 93.2842 63.3177 93.274 62.9141 93.2001C61.7366 92.9859 61.2053 92.328 61.2104 91.155C61.2181 89.9871 61.757 89.3572 62.9626 89.1685C63.4326 89.0946 63.9128 89.0793 64.3904 89.0793C69.0416 89.0742 73.6929 89.0767 78.3441 89.0716C78.7757 89.0716 79.307 89.2017 79.5548 88.7172C80.4309 87.0062 81.335 85.313 82.5943 83.6172C81.9123 83.6172 81.4704 83.6172 81.0285 83.6172C75.0389 83.6172 69.0493 83.6223 63.0597 83.6096C61.8132 83.607 61.0853 82.9415 61.001 81.822C60.9065 80.57 61.5527 79.7387 62.7991 79.5526C63.1746 79.4965 63.5603 79.5092 63.9434 79.5092C71.0799 79.5067 78.2164 79.499 85.3528 79.5194C86.1191 79.522 86.7423 79.3435 87.3732 78.8768C93.7051 74.19 100.76 72.7645 108.443 74.3582C109.227 74.5214 109.477 74.3735 109.467 73.5754C109.436 71.0943 109.485 68.6131 109.444 66.132C109.403 63.5718 107.516 61.7052 104.954 61.6313C103.904 61.6007 102.852 61.6211 101.799 61.6211C99.5772 61.6211 99.5772 61.6211 99.5568 63.8319C99.5287 67.101 97.2299 69.5821 93.9426 69.6051C85.1485 69.6663 76.3543 69.6714 67.5627 69.6051C63.8413 69.577 61.7187 66.7491 61.969 63.8166C61.9997 63.4698 61.9384 63.1128 61.9792 62.7686C62.0814 61.9118 61.7749 61.5624 60.8682 61.6083C59.5323 61.6746 58.1914 61.616 56.8555 61.6287C53.8799 61.6542 51.9693 63.5718 51.9667 66.5528C51.9616 87.3555 51.9642 108.158 51.9667 128.958C51.9667 129.402 51.9744 129.843 52.097 130.282C52.7075 132.49 54.6665 133.882 57.2412 133.885C72.9496 133.89 88.6554 133.888 104.364 133.888C104.522 133.888 104.683 133.885 104.841 133.882C106.949 133.837 109.746 132.072 109.485 129.106C109.357 127.655 109.431 126.182 109.475 124.72C109.5 123.846 109.232 123.626 108.348 123.83C102.954 125.075 97.7177 124.483 92.663 122.28C91.8482 121.926 91.0513 121.775 90.1752 121.775C81.4781 121.79 72.7784 121.785 64.0814 121.783C63.6982 121.783 63.3125 121.798 62.9371 121.752C61.9179 121.63 61.2692 120.921 61.2079 119.911C61.1185 118.481 61.9307 117.67 63.5169 117.667C70.3673 117.657 77.2177 117.665 84.068 117.657C84.4026 117.647 84.7577 117.733 85.2098 117.491ZM102.515 119.796C114.522 119.965 123.906 110.53 123.914 98.4887C123.921 87.1031 114.054 77.4412 102.617 77.4922C90.921 77.5432 81.4781 87.1923 81.6288 99.1237C81.7871 111.596 92.2415 120.12 102.515 119.796ZM80.8983 65.4155C85.1945 65.4155 89.4932 65.4231 93.7894 65.4104C95.1865 65.4053 95.6284 64.9539 95.6309 63.5846C95.6386 60.8841 95.6386 58.1812 95.6309 55.4807C95.6284 54.0527 95.1891 53.609 93.7434 53.6014C91.5468 53.5886 89.3501 53.6039 87.1535 53.5963C85.2583 53.5912 84.6555 53.0608 84.3873 51.1968C84.1472 49.524 82.6096 48.2796 80.7884 48.2872C78.9877 48.2923 77.6212 49.5036 77.4118 51.2784C77.2049 53.02 76.5868 53.5835 74.809 53.5937C72.6124 53.609 70.4158 53.5937 68.2192 53.6014C66.6586 53.6065 66.2882 53.9711 66.2856 55.4986C66.2805 58.1353 66.2831 60.7745 66.2856 63.4112C66.2882 65.1044 66.587 65.4129 68.2907 65.4155C72.4949 65.4206 76.6966 65.4155 80.8983 65.4155ZM132.621 133.903C134.866 133.826 136.519 132.771 137.446 130.749C138.396 128.678 137.972 126.725 136.401 125.128C132.452 121.115 128.44 117.165 124.473 113.172C124.026 112.72 123.814 112.771 123.482 113.276C121.783 115.859 119.633 118.006 117.04 119.694C116.481 120.059 116.581 120.286 116.992 120.686C120.974 124.575 124.933 128.489 128.917 132.373C129.931 133.36 131.157 133.931 132.621 133.903Z" fill="white"/>
<path d="M90.6706 97.7688C91.35 97.7255 91.8736 98.1207 92.3589 98.6078C94.1571 100.411 95.9603 102.206 97.7611 104.004C98.655 104.893 98.655 104.893 99.5797 103.97C104.06 99.4977 108.542 95.025 113.02 90.5498C113.546 90.0245 114.075 89.5477 114.895 89.5528C116.455 89.5655 117.434 91.1618 116.667 92.5184C116.468 92.8703 116.174 93.1814 115.883 93.4721C110.777 98.5797 105.666 103.682 100.553 108.782C99.1327 110.2 98.1723 110.197 96.7419 108.772C94.2848 106.324 91.8276 103.879 89.3833 101.418C88.4663 100.495 88.336 99.5997 88.9312 98.6817C89.3271 98.0774 89.8813 97.7612 90.6706 97.7688Z" fill="white"/>
</g>
<defs>
<radialGradient id="paint0_radial_4335_1689" cx="0" cy="0" r="1" gradientUnits="userSpaceOnUse" gradientTransform="translate(91 91) rotate(90) scale(91)">
<stop stop-color="#FEBCD3"/>
<stop offset="1" stop-color="#E16891"/>
</radialGradient>
<clipPath id="clip0_4335_1689">
<rect width="94" height="94" fill="white" transform="translate(48 44)"/>
</clipPath>
</defs>
</svg>
