<svg width="182" height="182" viewBox="0 0 182 182" fill="none" xmlns="http://www.w3.org/2000/svg">
<rect width="182" height="182" rx="91" fill="url(#paint0_radial_4335_1694)"/>
<path d="M136.973 57.9455C133.427 55.025 128.742 55.4102 125.14 58.9821C115.128 68.9273 105.131 78.8935 95.1335 88.8526C89.5192 94.4416 83.9119 100.044 78.1569 105.794C71.6702 99.3371 65.3383 93.0198 58.9994 86.7165C57.8455 85.5749 56.7199 84.3983 55.4535 83.3898C52.386 80.9595 48.1507 81.0646 45.1254 83.5369C41.073 86.8426 40.9253 92.3475 44.8933 96.3185C53.6313 105.073 62.4186 113.786 71.1848 122.512C75.8704 127.17 80.4294 127.163 85.122 122.491C102.274 105.416 119.427 88.3414 136.572 71.2595C137.248 70.5801 137.923 69.8868 138.479 69.1094C140.998 65.6075 140.315 60.691 136.973 57.9455Z" fill="white"/>
<defs>
<radialGradient id="paint0_radial_4335_1694" cx="0" cy="0" r="1" gradientUnits="userSpaceOnUse" gradientTransform="translate(91 91) rotate(90) scale(116.5)">
<stop stop-color="#FEBCD3"/>
<stop offset="1" stop-color="#E77B9B"/>
</radialGradient>
</defs>
</svg>
