<svg width="55" height="51" viewBox="0 0 55 51" fill="none" xmlns="http://www.w3.org/2000/svg">
<g id="Group 10">
<path id="Vector" d="M2.65561 49.7422C4.82549 50.6154 7.29506 49.5675 8.16912 47.3997L20.5142 16.8057L25.6947 30.8025H20.0036V35.9754H27.6093L31.7937 47.2832C32.4264 48.9909 34.0469 50.0499 35.7672 50.0499C36.2556 50.0499 36.7523 49.9639 37.2379 49.7865C39.4327 48.9743 40.5537 46.5403 39.7435 44.3475L24.6597 3.59059C24.0548 1.95222 22.4982 0.851655 20.7473 0.826705C19.013 0.798983 17.412 1.85519 16.7543 3.47693L0.30813 44.231C-0.565931 46.3989 0.482941 48.8661 2.65283 49.7394L2.65561 49.7422Z" fill="#C0C0C0"/>
<path id="Vector_2" d="M48.8368 12.0404L43.2789 14.2498L46.3895 22.0619L51.9502 19.8497C53.0296 19.42 53.8342 18.5966 54.2588 17.6125C54.6861 16.6256 54.7305 15.4724 54.3032 14.394C53.4458 12.2344 51.004 11.181 48.8396 12.0432L48.8368 12.0404Z" fill="#C0C0C0"/>
<path id="Vector_3" d="M36.5253 25.9848L41.2507 37.8498L43.0932 37.118C45.8597 36.0174 47.211 32.8848 46.1122 30.1209L43.379 23.2597L40.2712 15.4532L37.502 8.50056C37.2856 7.95721 36.9887 7.46653 36.6307 7.03406C36.5336 6.92318 36.4365 6.81229 36.331 6.70694C35.8371 6.21072 35.2544 5.8143 34.6218 5.54262C33.9891 5.27095 33.3037 5.12125 32.6045 5.10184C32.4574 5.0963 32.3103 5.10184 32.1633 5.11016C31.6028 5.1462 31.0395 5.26817 30.4984 5.4844L28.6559 6.21627L33.4175 18.1728L36.528 25.9848H36.5253Z" fill="#C0C0C0"/>
</g>
</svg>
