<svg width="102" height="241" viewBox="0 0 102 241" fill="none" xmlns="http://www.w3.org/2000/svg">
<g id="Group">
<path id="Vector" d="M96.7526 113.318L97.6279 116.547C97.6279 116.547 95.9131 116.375 95.1597 114.172C95.1597 114.172 95.6835 113.118 96.7597 113.318H96.7526Z" fill="#FFD7C1" stroke="#421705" stroke-width="0.195789" stroke-miterlimit="10"/>
<path id="Vector_2" d="M97.8934 111.903C97.1544 111.501 95.6045 111.631 95.6045 111.631C95.6045 111.631 94.7291 111.229 94.2556 111.157C93.782 111.092 92.2393 111.494 92.2393 111.494H91.4285C91.2133 111.494 90.1298 112.011 88.8239 112.685C87.6113 108.481 81.3187 86.9048 79.1876 84.2428C79.1231 84.1638 79.0585 84.0921 78.9867 84.0275C77.4584 78.2802 72.529 59.8686 70.4554 53.2315C67.7431 44.5566 64.2632 44.5566 64.2632 44.5566L60.4531 64.0445L70.4554 88.6986C70.4554 88.6986 70.8141 93.2261 72.9667 98.2488C75.1193 103.271 83.2847 115.649 83.2847 115.649C83.2847 115.649 84.6336 117.895 86.3126 118.899C87.9916 119.911 95.461 119.373 95.461 119.373C95.461 119.373 95.1955 117.945 93.9829 117.586C92.7703 117.22 90.4168 117.292 90.4168 117.292C90.4168 117.292 94.9946 114.063 95.9346 113.79C96.8745 113.518 97.8862 114.73 99.0271 114.867C100.168 115.003 101.18 114.328 101.18 114.328C101.18 114.328 98.6253 112.312 97.8862 111.903H97.8934Z" fill="#FFD7C1" stroke="#421705" stroke-width="0.195789" stroke-miterlimit="10"/>
<path id="Vector_3" d="M24.4552 61.176L25.4741 43.7402C25.4741 43.7402 19.6693 44.1133 16.5697 49.4589C13.5704 54.625 5.6131 69.3271 2.49188 73.5461C0.949207 75.6269 0.339318 78.253 0.769831 80.8074C2.93675 93.5578 15.3714 110.714 15.3714 110.714L20.8604 106.81C17.237 98.8531 12.8027 83.4909 11.7766 79.8746L24.4552 61.1832V61.176Z" fill="#FFD7C1" stroke="#421705" stroke-width="0.195789" stroke-miterlimit="10"/>
<path id="Vector_4" d="M52.6251 12.7291C50.9389 11.2868 46.9423 10.0025 43.2041 10.6841C39.4658 10.0025 35.4692 11.2868 33.783 12.7291C30.7622 15.305 31.7309 25.1135 32.8789 29.2895C33.9696 33.2502 39.7241 38.1508 42.9458 38.4092C42.9458 38.4092 42.9601 38.4092 42.9673 38.4092C42.9888 38.4092 43.0175 38.4092 43.0462 38.4092C43.1036 38.4092 43.161 38.4092 43.2112 38.4092C43.2615 38.4092 43.326 38.4092 43.3763 38.4092C43.3978 38.4092 43.4265 38.4092 43.4552 38.4092C43.4552 38.4092 43.4695 38.4092 43.4767 38.4092C46.6984 38.1437 52.4529 33.243 53.5435 29.2895C54.6916 25.1135 55.6531 15.305 52.6395 12.7291H52.6251Z" fill="#FFD7C1"/>
<path id="Vector_5" d="M38.0668 33.7656C38.0668 33.7656 38.9064 38.3793 38.2319 40.3022C37.5574 42.2252 35.29 43.6961 35.29 43.6961L43.4985 46.846L51.1186 43.8181C51.1186 43.8181 48.966 41.6297 48.5642 39.8502C48.1624 38.0708 48.5642 34.6984 48.5642 34.6984L38.0668 33.7656Z" fill="#FFD7C1"/>
<path id="Vector_6" d="M63.4883 55.8371L64.5143 44.6222L48.3773 40.3027L42.142 44.0123L38.2315 40.3027L22.1232 44.5505L20.6235 56.0093L27.9064 87.9031C27.9064 87.9031 23.7304 105.59 21.3554 120.931L43.3044 120.859H45.7225L66.7387 120.371C65.3108 102.332 59.1329 87.8098 59.1329 87.8098L63.4883 55.8299V55.8371Z" fill="#FFD7C1"/>
<g id="Group_2">
<path id="Vector_7" d="M88.8242 233.46C86.4922 231.487 83.6222 227.806 83.6222 227.806H83.5002C82.632 221.32 78.7 192.619 76.3178 183.578C73.6271 173.368 73.6845 171.567 72.9741 167.527C72.7876 166.472 67.2411 131.307 67.3488 121.692C67.5497 103.869 64.9164 100.561 64.9164 100.561C58.2578 98.4442 45.7227 120.86 45.7227 120.86L59.2767 173.267C59.2767 173.267 58.6452 178.728 61.3431 189.318C64.0338 199.909 75.6433 227.168 75.6433 227.168C75.6433 227.168 74.2944 233.281 74.567 234.228C74.8397 235.175 76.1815 236.151 77.9753 236.689C79.7691 237.227 82.9118 240.456 85.2437 240.635C87.5757 240.815 93.7679 239.559 94.2128 238.483C94.6648 237.407 91.1633 235.433 88.8314 233.46H88.8242Z" fill="#FFD7C1" stroke="#421705" stroke-width="0.195789" stroke-miterlimit="10"/>
<path id="Vector_8" d="M48.1191 114.308L26.1988 99.1328C26.1988 99.1328 23.0991 103.05 21.5134 119.116C20.0066 134.399 22.4677 164.599 23.2355 173.303L23.7018 226.321C23.7018 226.321 20.8318 230.002 18.4998 231.975C16.1679 233.948 12.6664 235.921 13.1184 236.997C13.5704 238.074 19.7555 239.329 22.0874 239.15C24.4194 238.971 27.5621 235.742 29.3559 235.204C31.1497 234.665 32.4987 233.697 32.7641 232.743C32.965 232.032 32.2619 228.416 31.8959 226.651C32.9005 222.274 39.4084 191.528 38.5617 179.639C37.8155 169.149 36.2513 166.68 36.2513 166.68L43.3117 120.874L48.1263 114.316L48.1191 114.308Z" fill="#FFD7C1" stroke="#421705" stroke-width="0.195789" stroke-miterlimit="10"/>
</g>
<path id="Vector_9" d="M46.4904 14.479C46.4904 14.479 44.6248 12.5059 42.5871 12.6637C40.5493 12.8216 41.3816 14.479 40.3699 14.6154C39.3582 14.7517 38.5618 13.7974 38.0954 14.4719C37.629 15.1463 38.8918 16.3661 37.3492 17.3707C35.7993 18.3824 35.132 17.098 34.5939 18.4469C34.0557 19.7959 35.3329 20.5995 34.5939 21.8121C33.8548 23.0247 32.3767 22.8238 32.4413 23.6274C32.5059 24.4382 33.9912 25.2419 33.2521 26.4545C32.5131 27.6599 32.4413 28.1335 32.4413 28.1335C32.4413 28.1335 34.558 34.3974 38.4111 36.2774C38.4111 36.2774 38.8631 39.2479 38.2461 40.3027L27.9138 43.0149C27.9138 43.0149 27.0599 42.936 26.8303 41.996C26.5935 41.0561 27.6698 40.8982 26.8303 40.3027C25.9908 39.7071 25.2805 40.3816 24.7782 39.4058C24.2759 38.4299 24.7782 37.7268 24.7782 36.7509C24.7782 35.7751 23.8382 36.3132 23.7019 37.124C23.5656 37.9348 22.0229 38.064 21.7861 37.5258C21.5494 36.9877 22.6974 37.5258 22.8624 36.2845C23.0274 35.0432 23.1638 34.9069 23.6015 34.706C24.0392 34.5051 23.3288 33.2925 22.1879 33.9311C21.0471 34.5697 20.3009 33.2279 20.5735 32.4171C20.8462 31.6063 22.353 31.9435 21.8148 30.7381C21.2767 29.5255 20.3367 31.1399 19.899 30.0995C19.4614 29.0591 20.8749 29.0591 20.6022 28.4205C20.3295 27.7819 19.3609 28.6932 19.1528 29.4609C18.9447 30.2286 18.2129 29.425 18.8802 28.112C19.5546 26.7989 20.6955 26.3971 20.2578 25.4571C20.2578 25.4571 19.5403 25.4787 19.404 24.675C19.2676 23.8642 20.6596 23.283 20.1645 22.1637C19.6694 21.0444 19.1743 22.7449 18.4138 22.0274C17.6532 21.3099 19.2246 21.6256 19.3107 19.8748C19.404 18.1241 20.9681 17.3204 20.9681 17.3204C20.9681 17.3204 19.8488 17.0478 19.1313 17.5429C18.4138 18.038 18.3707 16.646 19.5833 16.1078C20.7959 15.5697 21.5565 15.1176 21.5565 14.8522C21.5565 14.5867 19.9852 15.4333 19.5403 14.7589C19.0882 14.0844 21.3771 14.0844 21.8722 13.1875C22.3673 12.2906 23.2642 11.9318 23.623 11.9318C23.9817 11.9318 23.5799 11.3507 22.4534 11.4798C21.3341 11.6161 22.0947 10.6834 22.9916 10.4968C23.8885 10.3102 24.4266 10.9488 25.1011 10.4968C25.7756 10.0448 26.5792 9.37029 27.6124 9.41334C27.6124 9.41334 28.2869 5.6894 31.157 4.47679C34.0271 3.26418 33.6252 2.14485 34.7446 2.1018C35.8639 2.05874 35.1464 3.22113 34.7015 3.53684C34.2495 3.85255 35.2397 3.85255 36.3159 2.95565C37.3922 2.05874 38.8273 0.530423 41.1161 0.709803C43.405 0.889183 42.0131 1.69998 41.2525 1.42732C40.4919 1.15467 40.3125 2.05874 42.5512 1.92241C44.797 1.78609 45.1558 0.752854 46.0527 1.38427C46.9496 2.01569 46.6841 2.81932 47.581 2.59689C48.4779 2.37445 50.2287 2.01569 51.2619 3.2283C52.2951 4.44092 51.8431 5.6033 53.0127 5.65353C54.1822 5.69658 54.9859 5.78986 55.3016 6.50738C55.6173 7.2249 54.4908 6.59348 54.3616 7.26795C54.2253 7.94242 55.3518 7.58366 58.4013 9.01871C61.4507 10.4537 61.1852 12.7857 61.9889 13.6826C62.7997 14.5795 63.4239 13.4099 64.1414 14.2207C64.859 15.0315 63.7827 15.7491 63.1513 15.7491C62.5198 15.7491 63.0006 17.2774 64.3782 17.2774C65.7559 17.2774 67.0115 20.2407 66.3801 20.5062C65.7487 20.7717 65.0312 19.516 64.493 19.6093C63.9549 19.6954 65.3899 21.2238 65.3899 22.9315C65.3899 24.6392 63.7755 22.3933 63.5961 23.7423C63.4167 25.0912 65.842 27.1505 64.0482 30.2932C62.2544 33.436 64.9451 33.436 64.2275 34.2396C63.51 35.0504 61.9817 33.1633 61.6229 33.7876C61.2642 34.419 64.0482 35.5814 62.9719 36.2989C61.8956 37.0164 60.7619 34.7706 60.4749 35.8468C60.1879 36.9231 62.3405 37.1025 62.4337 38.9896C62.527 40.8767 60.3673 40.0659 60.1018 41.0561C59.8363 42.0462 61.8956 41.7951 61.2211 43.7611L48.7578 40.4246C48.7578 40.4246 47.7245 38.0066 48.2627 35.854C48.8008 33.7015 51.5848 32.4458 52.5678 28.5855C52.5678 28.5855 50.652 23.7853 51.1399 22.2355C51.6278 20.6928 51.6279 19.6165 50.2143 18.8703C48.8008 18.1312 50.8888 12.4772 46.5119 14.5006L46.4904 14.479Z" fill="#421705"/>
<path id="Vector_10" d="M62.4767 58.8654C60.769 55.6007 59.0397 53.6418 57.985 52.0274L56.2701 42.2333L52.4744 41.1211C52.4744 41.1211 52.8404 55.9666 43.1969 55.9092C33.7041 55.8518 32.922 41.6951 32.922 41.6951L29.7433 42.5274L27.476 53.771C27.476 53.771 24.6848 57.4662 22.7547 62.9122C21.5133 66.4281 22.073 70.7978 24.4408 72.7997L27.8921 87.9035L24.7637 102.232C24.7637 102.232 36.5239 107.133 43.2973 120.852H45.7154C45.7154 120.852 53.1274 105.849 64.9091 100.553C65.8275 100.144 59.9725 89.6614 59.133 87.8031L61.673 73.1082V73.0939C65.0095 69.7646 64.4355 62.6109 62.4767 58.8511V58.8654Z" fill="#E77B9B" stroke="#421705" stroke-width="0.195789" stroke-miterlimit="10"/>
<path id="Vector_11" d="M20.8532 106.803C20.8532 106.803 27.5764 108.69 28.6096 109.2C29.65 109.717 31.7237 114.423 31.7237 114.423C31.7237 114.423 30.6474 114.409 29.8438 113.799C29.0401 113.189 28.3298 111.697 28.3298 111.697L26.6508 111.166C26.6508 111.166 27.4759 111.948 28.2293 112.845C28.9899 113.749 29.8509 115.873 29.8509 115.873C29.8509 115.873 28.5522 116.181 27.9567 115.564L28.4016 116.798C28.4016 116.798 27.1387 116.849 26.0768 115.988C25.0077 115.127 24.6561 114.632 24.6561 114.632L23.6157 114.409C23.6157 114.409 24.9359 115.328 25.5171 116.648L26.0983 117.968C26.0983 117.968 24.6417 117.903 24.0605 117.243C23.4793 116.583 23.0417 116.088 23.0417 116.088C23.0417 116.088 16.9355 112.608 15.5005 110.915C14.0655 109.229 20.8532 106.789 20.8532 106.789V106.803Z" fill="#FFD7C1"/>
<path id="Vector_12" d="M33.6753 73.3445C33.6753 73.3445 38.3822 72.2179 43.204 71.9094C48.0257 71.6009 53.2565 72.6269 53.2565 72.6269" stroke="#421705" stroke-width="0.195789" stroke-miterlimit="10" stroke-linecap="round"/>
<path id="Vector_13" d="M32.6494 47.873C32.6494 47.873 34.5365 57.2511 43.2042 57.4089C51.8718 57.5596 53.027 47.873 53.027 47.873" stroke="#421705" stroke-width="0.195789" stroke-miterlimit="10" stroke-linecap="round"/>
<path id="Vector_14" d="M24.4551 72.8145C24.4551 72.8145 25.7323 74.1203 29.4275 73.862" stroke="#421705" stroke-width="0.195789" stroke-miterlimit="10" stroke-linecap="round"/>
<path id="Vector_15" d="M61.6805 73.1074C61.6805 73.1074 60.1809 74.0617 57.2534 73.6527" stroke="#421705" stroke-width="0.195789" stroke-miterlimit="10" stroke-linecap="round"/>
<path id="Vector_16" d="M58.8893 88.4629L56.0981 89.8118" stroke="#421705" stroke-width="0.195789" stroke-miterlimit="10" stroke-linecap="round"/>
<path id="Vector_17" d="M28.8105 88.7715L31.0923 90.4003" stroke="#421705" stroke-width="0.195789" stroke-miterlimit="10" stroke-linecap="round"/>
<path id="Vector_18" d="M15.3643 110.706C15.3643 110.706 17.8756 113.713 21.7717 115.356L23.0417 116.102C23.0417 116.102 23.6732 117.243 24.6992 117.68C25.7181 118.118 26.1199 118.089 26.1199 117.781C26.1199 117.472 25.3737 116.167 25.1943 115.707C25.0149 115.248 23.5153 114.358 23.5153 114.358L24.771 114.653C24.771 114.653 25.4239 115.758 26.45 116.346C27.476 116.934 27.9496 116.855 28.2079 116.741C28.4662 116.626 28.0357 115.628 28.0357 115.628C28.0357 115.628 29.4492 116.274 29.8582 115.872C30.2672 115.471 29.0833 113.899 28.5021 113.06C27.9281 112.227 26.6509 111.158 26.6509 111.158L28.3299 111.689C28.3299 111.689 29.0976 113.261 29.7362 113.863C30.3748 114.466 31.5946 114.588 31.7237 114.416C31.8529 114.244 31.6735 113.863 31.0349 112.694C30.3963 111.531 29.9371 110.032 28.7604 109.285C27.5837 108.539 20.8246 106.738 20.8246 106.738" stroke="#421705" stroke-width="0.195789" stroke-linecap="round" stroke-linejoin="round"/>
<path id="Vector_19" d="M24.9863 112.047C24.9863 112.047 25.7756 112.355 26.2707 112.779C26.7658 113.202 27.4976 114.817 27.8277 115.161" stroke="#421705" stroke-width="0.195789" stroke-linecap="round" stroke-linejoin="round"/>
<path id="Vector_20" d="M11.1235 79.701C11.1235 79.701 9.27951 78.5888 6.28027 78.7036" stroke="#421705" stroke-width="0.195789" stroke-linecap="round" stroke-linejoin="round"/>
<path id="Vector_21" d="M29.7503 42.5332L22.123 44.5566" stroke="#421705" stroke-width="0.195789" stroke-linecap="round" stroke-linejoin="round"/>
<path id="Vector_22" d="M24.0605 48.7988C24.0605 48.7988 25.1512 52.616 26.8804 54.6538" stroke="#421705" stroke-width="0.195789" stroke-linecap="round" stroke-linejoin="round"/>
<path id="Vector_23" d="M63.1437 48.4395C63.1437 48.4395 62.254 53.1823 60.2378 55.1913" stroke="#421705" stroke-width="0.195789" stroke-linecap="round" stroke-linejoin="round"/>
<path id="Vector_24" d="M29.8866 169.377C29.8866 169.377 30.1163 171.3 28.7314 173.761" stroke="#421705" stroke-width="0.195789" stroke-linecap="round" stroke-linejoin="round"/>
<path id="Vector_25" d="M24.5054 176.101C24.6202 176.101 27.0454 176.718 28.7316 175.562" stroke="#421705" stroke-width="0.195789" stroke-linecap="round" stroke-linejoin="round"/>
<path id="Vector_26" d="M35.4549 166.838L33.4961 167.225" stroke="#421705" stroke-width="0.195789" stroke-linecap="round" stroke-linejoin="round"/>
<path id="Vector_27" d="M65.2964 169.852C65.2964 169.852 65.5547 173.439 67.5996 174.616" stroke="#421705" stroke-width="0.195789" stroke-linecap="round" stroke-linejoin="round"/>
<path id="Vector_28" d="M70.2188 176.876C70.2188 176.876 71.9623 176.568 72.6296 175.441" stroke="#421705" stroke-width="0.195789" stroke-linecap="round" stroke-linejoin="round"/>
<path id="Vector_29" d="M60.0229 173.08L63.2518 174.106" stroke="#421705" stroke-width="0.195789" stroke-linecap="round" stroke-linejoin="round"/>
<path id="Vector_30" d="M64.5145 44.6213L56.5859 42.4902" stroke="#421705" stroke-width="0.195789" stroke-linecap="round" stroke-linejoin="round"/>
<path id="Vector_31" d="M75.8583 85.7715C75.8583 85.7715 74.3228 86.3096 72.938 87.924" stroke="#421705" stroke-width="0.195789" stroke-linecap="round" stroke-linejoin="round"/>
<path id="Vector_32" d="M95.5115 111.832C95.5115 111.832 94.4639 112.32 93.1006 113.009" stroke="#421705" stroke-width="0.195789" stroke-linecap="round" stroke-linejoin="round"/>
<g id="Vector_33">
<path d="M38.3965 36.2841C38.3965 36.2841 40.2118 37.5756 42.8379 37.9344C45.4641 38.2931 48.2409 35.832 48.2409 35.832" fill="#FFD7C1"/>
<path d="M38.3965 36.2841C38.3965 36.2841 40.2118 37.5756 42.8379 37.9344C45.4641 38.2931 48.2409 35.832 48.2409 35.832" stroke="#421705" stroke-width="0.195789" stroke-miterlimit="10"/>
</g>
<g id="Vector_34">
<path d="M34.1919 44.623C34.1919 44.623 38.7051 44.6948 41.2667 45.4625L34.1919 44.623Z" fill="#FFD7C1"/>
<path d="M34.1919 44.623C34.1919 44.623 38.7051 44.6948 41.2667 45.4625" stroke="#421705" stroke-width="0.195789" stroke-miterlimit="10"/>
</g>
<g id="Vector_35">
<path d="M45.5146 45.0461C45.5146 45.0461 51.1041 43.7546 52.3598 43.7402L45.5146 45.0461Z" fill="#FFD7C1"/>
<path d="M45.5146 45.0461C45.5146 45.0461 51.1041 43.7546 52.3598 43.7402" stroke="#421705" stroke-width="0.195789" stroke-miterlimit="10"/>
</g>
<path id="Vector_36" d="M19.2458 238.935C19.2458 238.935 19.0521 238.361 19.6333 237.837C20.2073 237.32 20.9033 237.22 21.2477 236.761C21.5921 236.301 21.7069 235.957 21.7069 235.957" stroke="#421705" stroke-width="0.195789" stroke-miterlimit="10"/>
<path id="Vector_37" d="M17.0649 238.576C17.0649 238.576 17.0649 237.779 17.5744 237.449C18.0838 237.119 19.0668 236.509 19.3682 236.15" stroke="#421705" stroke-width="0.195789" stroke-miterlimit="10"/>
<path id="Vector_38" d="M15.6227 238.145C15.6227 238.145 15.594 237.657 15.9312 237.133C16.2613 236.609 17.2156 236.301 17.4452 235.906" stroke="#421705" stroke-width="0.195789" stroke-miterlimit="10"/>
<path id="Vector_39" d="M14.3452 237.794C14.3452 237.794 14.4529 236.961 14.8547 236.466C15.2493 235.964 16.0314 235.763 16.2538 235.469" stroke="#421705" stroke-width="0.195789" stroke-miterlimit="10"/>
<path id="Vector_40" d="M29.112 233.955L28.3442 235.182" stroke="#421705" stroke-width="0.195789" stroke-miterlimit="10"/>
<path id="Vector_41" d="M30.9199 224.922C30.9199 224.922 31.2643 225.883 31.2643 226.615C31.2643 227.347 30.9199 227.77 30.9199 227.77" stroke="#421705" stroke-width="0.195789" stroke-miterlimit="10"/>
<path id="Vector_42" d="M88.3576 240.234C88.3576 240.234 88.5513 239.66 87.9701 239.136C87.3889 238.612 86.7001 238.519 86.3557 238.059C86.0113 237.6 85.8965 237.256 85.8965 237.256" stroke="#421705" stroke-width="0.195789" stroke-miterlimit="10"/>
<path id="Vector_43" d="M90.5318 239.867C90.5318 239.867 90.5318 239.07 90.0223 238.74C89.5129 238.41 88.5299 237.8 88.2285 237.441" stroke="#421705" stroke-width="0.195789" stroke-miterlimit="10"/>
<path id="Vector_44" d="M91.9739 239.436C91.9739 239.436 92.0026 238.948 91.6653 238.424C91.3353 237.9 90.381 237.592 90.1514 237.197" stroke="#421705" stroke-width="0.195789" stroke-miterlimit="10"/>
<path id="Vector_45" d="M93.2514 239.092C93.2514 239.092 93.1438 238.26 92.7419 237.765C92.3473 237.263 91.5652 237.062 91.3428 236.768" stroke="#421705" stroke-width="0.195789" stroke-miterlimit="10"/>
<path id="Vector_46" d="M78.4849 235.246L79.2526 236.48" stroke="#421705" stroke-width="0.195789" stroke-miterlimit="10"/>
<path id="Vector_47" d="M76.6764 226.213C76.6764 226.213 76.332 227.174 76.332 227.906C76.332 228.638 76.6764 229.061 76.6764 229.061" stroke="#421705" stroke-width="0.195789" stroke-miterlimit="10"/>
</g>
</svg>
