<svg width="75" height="244" viewBox="0 0 75 244" fill="none" xmlns="http://www.w3.org/2000/svg">
<g id="Group">
<g id="Group_2">
<path id="Vector" d="M14.2962 41.2832C14.2962 41.2832 10.5221 42.1586 8.39104 48.236C6.26 54.3062 8.25471 76.5279 8.25471 76.5279C8.25471 76.5279 1.25887 102.072 0.935986 111.916L1.02926 111.945C0.921635 112.763 0.849883 114.413 1.14407 117.584C1.63916 122.887 3.25358 125.362 4.6097 125.915C5.96581 126.467 8.1686 126.518 8.1686 126.518C8.1686 126.518 7.37216 125.355 6.57571 125.154C5.77926 124.953 5.12631 124.652 5.12631 124.652C5.12631 124.652 3.95675 121.316 3.90653 120.01L3.8563 118.697C3.8563 118.697 4.74603 120.871 5.77926 122.083C6.81249 123.296 7.42238 123.346 7.42238 123.346C7.42238 123.346 7.42238 121.581 7.09232 121.072C6.76226 120.569 6.05909 119.106 6.05909 119.106C6.05909 119.106 7.09232 116.781 6.61876 114.004C6.4896 113.243 6.01604 112.698 5.40615 112.296C7.23583 107.884 15.9609 86.5445 16.8434 79.6993C17.8264 72.0505 14.2891 41.2904 14.2891 41.2904L14.2962 41.2832Z" fill="#FFD7C1" stroke="#421705" stroke-width="0.195789" stroke-miterlimit="10"/>
<path id="Vector_2" d="M32.1769 235.482C31.1437 233.279 29.6943 223.306 29.1346 219.201L29.1059 212.665C30.1463 206.114 31.6387 196.126 32.3491 188.549C33.4971 176.243 29.1418 163.608 29.1418 163.608L28.6108 109.298L7.11385 99.2891C7.11385 99.2891 6.30305 112.255 8.97223 131.994C11.6342 151.733 18.4076 164.914 18.4076 164.914C18.4076 164.914 16.2049 176.817 16.5995 193.794C16.908 207.176 19.4409 216.59 20.5028 219.976C19.7494 225.157 18.0561 236.616 17.4246 238.761C16.6067 241.552 20.0508 241.882 24.155 242.37C28.2592 242.865 31.8684 242.205 33.5115 240.892C35.1546 239.579 33.5115 238.266 32.1984 235.475L32.1769 235.482Z" fill="#FFD7C1" stroke="#421705" stroke-width="0.195789" stroke-miterlimit="10"/>
<path id="Vector_3" d="M17.5539 30.8223C17.5539 30.8223 14.3681 37.6172 16.0543 41.5564C17.7333 45.4956 13.5502 45.9835 15.0282 48.5738C15.0282 48.5738 15.5233 47.4688 17.4893 46.4786C19.4554 45.4956 18.9674 44.0605 19.7065 42.2524C20.4455 40.4442 23.8251 37.9616 23.8251 37.9616L24.4565 33.3695C24.4565 33.3695 20.955 35.4072 17.5539 30.8223Z" fill="#421705"/>
<path id="Vector_4" d="M51.3995 53.2515C51.3995 53.2515 54.3557 61.3739 51.3995 67.1212C48.4434 72.8686 46.9724 75.1216 48.9384 77.6832C50.9045 80.2447 49.7708 82.0529 48.0415 83.3659C46.3123 84.679 45.6594 84.3489 46.4773 87.3051C47.2953 90.2613 43.1983 90.2613 43.1983 90.2613C43.1983 90.2613 37.781 87.1831 39.5891 79.6994C41.3973 72.2085 48.2855 54.1628 48.2855 54.1628C48.2855 54.1628 46.1545 50.3886 51.4067 53.2587L51.3995 53.2515Z" fill="#421705"/>
<path id="Vector_5" d="M35.5064 21.5957C35.5064 21.5957 33.5763 32.3442 36.1235 37.2879C38.6779 42.2388 22.3399 43.4658 23.2655 40.445C24.1911 37.4242 24.7723 30.127 24.7723 30.127L35.5064 21.5957Z" fill="#FFD7C1" stroke="#421705" stroke-width="0.195789" stroke-miterlimit="10"/>
<path id="Vector_6" d="M13.5501 9.92157C13.5501 9.92157 13.5286 16.3577 14.2246 22.2342C14.9206 28.1107 18.4078 33.5854 22.347 33.9011C26.2862 34.2097 34.4228 28.3978 35.8866 23.7626C37.3575 19.1274 38.5917 8.22822 34.7242 5.3653C30.8568 2.50239 17.5611 0.184798 13.543 9.92874L13.5501 9.92157Z" fill="#FFD7C1" stroke="#421705" stroke-width="0.195789" stroke-miterlimit="10"/>
<path id="Vector_7" d="M50.2227 44.3904C50.3375 38.313 42.0429 40.2862 35.1763 36.3613C35.1763 36.3613 22.1317 37.2869 14.2964 41.2835C14.2964 41.2835 11.0962 52.319 11.333 56.9399C11.7276 64.8039 15.961 77.2529 15.961 77.2529L10.6872 88.1592L8.95801 99.819L25.2745 109.29L49.1249 94.6815L41.8851 81.1921C41.8851 81.1921 50.1366 48.918 50.2227 44.376V44.3904Z" fill="#FFD7C1"/>
<path id="Vector_8" d="M57.0102 222.113L56.1851 218.977C56.1851 218.977 55.2164 193.548 51.2773 180.26C47.6394 167.976 42.1073 158.634 41.2893 157.292C44.346 150.024 48.9381 138.055 51.88 125.542C56.6156 105.408 49.1175 94.6811 49.1175 94.6811C32.1409 88.5607 25.2671 109.29 25.2671 109.29L27.965 159.947C27.965 159.947 28.9551 171.456 32.8441 183.187C37.2999 196.634 45.7595 214.436 48.5578 220.204C48.687 221.991 49.2682 230.881 48.5363 233.78C47.7183 237.009 45.0635 240.998 45.8241 241.952C46.5847 242.9 51.3347 243.474 54.9438 243.28C58.5529 243.093 61.2149 243.093 61.2149 241.192C61.2149 239.513 57.7995 225.371 57.0102 222.113Z" fill="#FFD7C1" stroke="#421705" stroke-width="0.195789" stroke-miterlimit="10"/>
<g id="Group_3">
<path id="Vector_9" d="M21.3638 66.0962C27.8717 65.8738 40.701 68.83 44.755 69.8202L47.5821 58.3685C47.5821 58.3685 41.641 54.3504 39.2158 49.5932C36.7905 44.8361 38.857 37.9335 38.857 37.9335L36.1232 37.2949C36.1232 37.2949 31.4091 53.8123 24.4563 54.8025C17.5036 55.7926 18.1493 47.7277 18.8453 45.2164C19.5413 42.705 21.9881 38.3856 21.9881 38.3856L19.118 38.9237C19.118 38.9237 15.5591 45.9195 12.6746 51.2148C9.7902 56.5102 9.8763 58.0313 9.7902 60.3632C9.7041 62.6952 13.0621 67.2156 13.0621 67.2156C13.0621 67.2156 13.5572 66.3761 21.3638 66.1034V66.0962Z" fill="#E77B9B" stroke="#421705" stroke-width="0.195789" stroke-miterlimit="10"/>
<path id="Vector_10" d="M42.7678 82.8496C42.7678 82.8496 37.4222 88.4893 27.1975 90.2544C19.1613 91.6464 12.5529 89.0059 10.6945 88.1664C8.18322 92.9236 7.33654 97.7812 7.10693 99.2952L25.2818 109.305C25.2818 109.305 38.1326 94.2295 49.1322 94.6959L42.7749 82.8568L42.7678 82.8496Z" fill="#E77B9B" stroke="#421705" stroke-width="0.195789" stroke-miterlimit="10"/>
</g>
<path id="Vector_11" d="M17.9771 7.38106C17.9771 7.38106 20.0292 13.7024 24.7074 16.4864C29.3857 19.2776 31.036 18.5457 30.8638 21.9826C30.6916 25.4196 28.3812 28.0744 30.0745 30.3633C31.7679 32.6522 33.576 31.6907 33.2459 33.8935C32.9159 36.0963 28.7112 37.9044 30.0745 39.7915C31.4378 41.6786 28.5677 42.1737 27.8287 44.1397C27.0896 46.1057 29.5507 46.3568 28.6466 48.3228C27.7426 50.2889 26.5945 51.932 27.8287 52.915C29.0628 53.898 27.6421 52.506 30.0745 50.8629C32.5069 49.2197 30.6987 46.5936 32.2629 45.5317C33.8271 44.4698 36.9555 45.1227 37.3143 42.2526C37.6731 39.3825 40.4427 39.0166 40.8947 38.9879C46.0824 38.6435 51.1625 43.3289 51.1625 43.3289C51.1625 43.3289 50.4736 38.6076 48.6296 32.4513C46.7856 26.2949 44.4465 27.8663 44.8124 21.0068C45.1783 14.1473 39.4166 9.92826 37.3143 6.36218C35.212 2.7961 32.7509 1.43998 27.2116 0.944893C21.6723 0.449803 19.613 3.91543 19.613 3.91543C19.613 3.91543 15.7671 3.64277 13.5572 9.92109C11.34 16.1994 14.0522 20.4974 14.0522 20.4974C14.0522 20.4974 17.9914 11.4853 17.9914 7.38106H17.9771Z" fill="#421705"/>
<path id="Vector_12" d="M71.5618 72.8329C67.271 64.1867 54.3269 40.5013 43.1336 39.1309C43.1336 39.1309 45.9606 48.9035 45.9606 54.4284C45.9606 58.7981 58.6536 72.0364 63.9776 77.3963C63.4251 77.8053 62.8511 78.2501 62.2771 78.7237C58.8473 81.5794 47.7257 92.5719 46.1472 94.1361C45.7239 93.7917 44.5615 92.8876 43.5713 92.5145C42.3371 92.0553 40.4357 92.536 40.4357 92.536C40.4357 92.536 40.7442 93.1531 41.39 93.3109C42.0358 93.4688 42.8681 93.5621 42.8681 93.5621L43.2269 93.9567C41.4331 93.7773 39.3594 93.5908 38.4697 93.5621C36.7548 93.5118 34.6597 97.7524 34.6597 97.7524C34.6597 97.7524 35.901 97.9892 36.5611 97.4654C37.2284 96.9416 38.3693 95.6859 38.3693 95.6859L40.4859 96.0375C40.4859 96.0375 39.1729 96.6546 38.032 97.4152C36.8912 98.1757 35.6857 101.426 35.6857 101.426C35.6857 101.426 37.049 101.498 37.7594 100.96L37.4365 102.388C37.4365 102.388 38.2257 102.459 39.2949 101.778C40.364 101.096 40.9739 100.135 40.9739 100.135L43.5067 99.9911C43.5067 99.9911 42.1506 100.637 41.2537 101.311C40.364 101.993 39.9335 103.421 39.9335 103.421C39.9335 103.421 40.5792 103.493 41.1819 103.062C41.7918 102.632 42.5381 102.029 42.5381 102.029C42.5381 102.029 45.6449 101.598 47.1087 100.852C48.1419 100.321 48.7733 99.6395 49.0675 99.2807C49.0675 99.2807 73.3484 84.4998 73.8364 81.9167C74.3314 79.3336 72.5879 74.9208 71.5475 72.8185L71.5618 72.8329Z" fill="#FFD7C1"/>
</g>
<path id="Vector_13" d="M41.1748 50.8555C41.1748 50.8555 55.6759 69.5613 63.9848 77.3966C63.9848 77.3966 65.8001 77.2746 67.4935 78.3868" stroke="#421705" stroke-width="0.195789" stroke-miterlimit="10" stroke-linecap="round"/>
<path id="Vector_14" d="M40.7586 95.8809C40.7586 95.8809 38.4984 96.584 37.6876 97.7321C36.8768 98.8801 35.5781 101.571 35.5781 101.571C35.5781 101.571 37.3648 101.865 37.7666 100.975C38.1684 100.086 38.9361 98.6505 39.6321 98.0621C40.3281 97.4738 41.1676 97.3159 41.1676 97.3159" stroke="#421705" stroke-width="0.195789" stroke-miterlimit="10" stroke-linecap="round"/>
<path id="Vector_15" d="M37.7736 100.967L37.4507 102.395C37.4507 102.395 37.996 102.689 39.0292 101.95C40.0553 101.211 40.8159 100.099 40.8159 100.099L43.5209 99.9986C43.5209 99.9986 41.9424 100.436 41.1746 101.075C40.4069 101.714 39.6104 103.486 39.7683 103.665C39.919 103.845 41.3971 103.428 41.8706 102.818C42.3442 102.209 42.7245 102.015 42.7245 102.015C42.7245 102.015 46.2547 101.735 47.6036 100.594C48.9526 99.4533 49.1319 99.1591 49.1319 99.1591C49.1319 99.1591 71.3895 86.581 73.8649 81.9314C76.3404 77.2747 57.8139 48.1433 51.1697 43.3359" stroke="#421705" stroke-width="0.195789" stroke-linecap="round" stroke-linejoin="round"/>
<path id="Vector_16" d="M13.062 67.207C13.062 67.207 15.0926 75.1643 15.9608 77.2595C15.9608 77.2595 12.0073 85.3173 10.687 88.1658" stroke="#421705" stroke-width="0.195789" stroke-linecap="round" stroke-linejoin="round"/>
<path id="Vector_17" d="M46.6206 95.1133C46.6206 95.1133 47.2377 95.8452 47.4673 96.8784" stroke="#421705" stroke-width="0.195789" stroke-linecap="round" stroke-linejoin="round"/>
<path id="Vector_18" d="M40.4214 96.0739L38.3764 95.6864C38.3764 95.6864 38.1253 95.9591 36.9055 97.1789C35.6929 98.3986 34.6597 97.76 34.6597 97.76C34.6597 97.76 36.6113 93.8065 38.2473 93.5841C39.8832 93.3616 43.8224 94.0361 43.8224 94.0361" stroke="#421705" stroke-width="0.195789" stroke-linecap="round" stroke-linejoin="round"/>
<path id="Vector_19" d="M13.3276 65.6157C13.3276 65.6157 15.5304 64.8981 24.4564 65.1062C33.3824 65.3143 44.1452 68.3853 44.1452 68.3853" stroke="#421705" stroke-width="0.195789" stroke-linecap="round" stroke-linejoin="round"/>
<path id="Vector_20" d="M43.1263 93.921L42.8679 93.5622C42.8679 93.5622 40.5647 93.4977 40.4355 92.5362C40.4355 92.5362 41.7343 92.0339 43.3774 92.4501C45.0205 92.8662 46.147 94.1363 46.147 94.1363L63.9703 77.3965" stroke="#421705" stroke-width="0.195789" stroke-miterlimit="10" stroke-linecap="round"/>
<path id="Vector_21" d="M22.77 40.0938L25.432 40.8113" stroke="#421705" stroke-width="0.195789" stroke-miterlimit="10"/>
<g id="Vector_22">
<path d="M20.1299 70.8965C20.1299 70.8965 21.4358 74.5845 21.5147 79.8153C21.5936 85.046 21.5147 86.4237 20.8259 86.4237C20.1371 86.4237 20.8402 84.8092 20.8402 84.8092" fill="#FFD7C1"/>
<path d="M20.1299 70.8965C20.1299 70.8965 21.4358 74.5845 21.5147 79.8153C21.5936 85.046 21.5147 86.4237 20.8259 86.4237C20.1371 86.4237 20.8402 84.8092 20.8402 84.8092" stroke="#421705" stroke-width="0.195789" stroke-linecap="round" stroke-linejoin="round"/>
</g>
<path id="Vector_23" d="M29.9741 160.996C29.9741 160.996 31.28 161.843 32.8944 161.843C34.5089 161.843 36.0444 160.336 36.0444 160.336" stroke="#421705" stroke-width="0.195789" stroke-linecap="round" stroke-linejoin="round"/>
<path id="Vector_24" d="M49.8853 220.801L53.193 221.368" stroke="#421705" stroke-width="0.195789" stroke-linecap="round" stroke-linejoin="round"/>
<path id="Vector_25" d="M50.2298 238.33C50.2298 238.33 50.2298 239.715 50.0791 240.21C49.9284 240.712 49.462 241.207 49.3903 241.903C49.3113 242.592 49.8136 243.109 49.8136 243.109" stroke="#421705" stroke-width="0.195789" stroke-linecap="round" stroke-linejoin="round"/>
<path id="Vector_26" d="M52.6552 238.559C52.6552 238.559 52.5762 240.151 52.6552 240.718C52.7341 241.285 53.0354 242.935 52.4614 243.301" stroke="#421705" stroke-width="0.195789" stroke-linecap="round" stroke-linejoin="round"/>
<path id="Vector_27" d="M54.6495 238.559C54.6495 238.559 54.6136 239.879 55.1087 240.718C55.611 241.558 55.7617 242.584 55.4172 243.108" stroke="#421705" stroke-width="0.195789" stroke-linecap="round" stroke-linejoin="round"/>
<path id="Vector_28" d="M57.3403 238.91C57.3403 238.91 58.0722 240.984 58.0722 241.83C58.0722 242.677 57.7063 243.115 57.7063 243.115" stroke="#421705" stroke-width="0.195789" stroke-linecap="round" stroke-linejoin="round"/>
<path id="Vector_29" d="M21.7441 166.146C21.7441 166.146 24.6645 168.902 27.7426 168.45" stroke="#421705" stroke-width="0.195789" stroke-linecap="round" stroke-linejoin="round"/>
<path id="Vector_30" d="M21.2061 219.574L23.129 217.881" stroke="#421705" stroke-width="0.195789" stroke-linecap="round" stroke-linejoin="round"/>
<path id="Vector_31" d="M28.7686 236.076C28.7686 236.076 28.9192 238.229 29.6368 239.154C30.3543 240.08 30.1318 242.247 30.1318 242.247" stroke="#421705" stroke-width="0.195789" stroke-linecap="round" stroke-linejoin="round"/>
<path id="Vector_32" d="M26.4653 236.945C26.4653 236.945 26.7739 239.098 26.7739 239.815V242.535" stroke="#421705" stroke-width="0.195789" stroke-linecap="round" stroke-linejoin="round"/>
<path id="Vector_33" d="M24.1049 236.945C24.1049 236.945 23.7462 240.138 23.6959 240.719C23.6457 241.301 23.904 242.348 23.904 242.348" stroke="#421705" stroke-width="0.195789" stroke-linecap="round" stroke-linejoin="round"/>
<path id="Vector_34" d="M20.8474 241.932C20.8474 241.932 20.3667 240.288 20.3667 239.743C20.3667 239.198 20.8187 237.72 20.8474 237.203" stroke="#421705" stroke-width="0.195789" stroke-linecap="round" stroke-linejoin="round"/>
<g id="Vector_35">
<path d="M11.5625 53.0587C11.5625 53.0587 12.4307 48.4379 13.0908 45.8691L11.5625 53.0587Z" fill="#FFD7C1"/>
<path d="M11.5625 53.0587C11.5625 53.0587 12.4307 48.4379 13.0908 45.8691" stroke="#421705" stroke-width="0.195789" stroke-linecap="round" stroke-linejoin="round"/>
</g>
<path id="Vector_36" d="M18.8526 39.4395L14.2964 41.2835" stroke="#421705" stroke-width="0.195789" stroke-linecap="round" stroke-linejoin="round"/>
</g>
</svg>
