<svg width="102" height="242" viewBox="0 0 102 242" fill="none" xmlns="http://www.w3.org/2000/svg">
<g id="Group">
<path id="Vector" d="M71.1438 43.8906C71.1438 43.8906 76.714 48.906 85.8937 80.8223L79.3813 84.1431L63.1724 65.1529L71.1438 43.8906Z" fill="#FFD7C1"/>
<path id="Vector_2" d="M76.7137 81.0208C76.7137 81.0208 78.2411 88.2856 82.5346 96.4622C86.8281 104.631 90.6276 110.711 90.6276 110.711L96.5169 107.861C96.5169 107.861 90.3769 85.5043 85.1791 77.8672L76.7061 81.0208H76.7137Z" fill="#FFD7C1"/>
<path id="Vector_3" d="M96.9201 116.416C96.9201 116.416 96.6162 119.676 96.1982 120.527C95.7803 121.378 92.4138 121.378 91.8819 121.15C91.35 120.922 92.3455 119.965 94.6328 119.585L94.9595 117.411L96.9277 116.416H96.9201Z" fill="#FFD7C1"/>
<path id="Vector_4" d="M97.3 115.543C97.3 115.543 96.996 118.803 96.5781 119.654C96.1601 120.505 92.7937 120.505 92.2618 120.277C91.7299 120.049 92.7253 119.092 95.0127 118.712L95.3394 116.538L97.3076 115.543H97.3Z" fill="#FFD7C1"/>
<path id="Vector_5" d="M96.2058 116.881C96.2058 116.881 95.9018 120.141 95.4839 120.992C95.0659 121.843 91.6995 121.843 91.1676 121.615C90.6356 121.387 91.6311 120.43 93.9184 120.05L94.2452 117.876L96.2134 116.881H96.2058Z" fill="#FFD7C1"/>
<path id="Vector_6" d="M59.4565 8.00745C57.6707 6.48003 53.438 5.11979 49.4788 5.84171C45.5197 5.11979 41.287 6.48003 39.5012 8.00745C36.302 10.7355 37.3278 21.1235 38.5437 25.5462C39.6912 29.7409 45.7933 34.9311 49.2053 35.2047C49.2053 35.2047 49.2205 35.2047 49.2281 35.2047C49.2509 35.2047 49.2812 35.2047 49.3116 35.2047C49.3724 35.2047 49.4332 35.2047 49.4864 35.2047C49.5396 35.2047 49.608 35.2047 49.6612 35.2047C49.684 35.2047 49.7144 35.2047 49.7448 35.2047C49.7448 35.2047 49.76 35.2047 49.7676 35.2047C53.1796 34.9235 59.2741 29.7333 60.4291 25.5462C61.645 21.1235 62.6633 10.7355 59.4717 8.00745H59.4565Z" fill="#FFD7C1"/>
<path id="Vector_7" d="M69.3809 68.7622C69.3809 68.7622 76.4177 50.2507 71.463 44.255C66.5084 38.2593 55.5581 38.001 55.2997 35.2197C55.0414 32.4384 55.2997 28.2285 55.2997 28.2285L48.4605 34.3078L41.6213 28.2285C41.6213 28.2285 41.8797 32.446 41.6213 35.2197C41.363 38.001 30.4126 38.2593 25.458 44.255C20.5034 50.2507 27.5402 68.7622 27.5402 68.7622C27.5402 68.7622 16.2555 95.2831 17.5474 111.431C18.976 129.327 47.6474 126.287 51.8801 126.287C56.0672 126.721 78.5302 127.64 78.4542 110.261C78.3858 94.0672 69.3733 68.7698 69.3733 68.7698L69.3809 68.7622Z" fill="#FFD7C1"/>
<path id="Vector_8" d="M21.8181 95.6248C21.8181 95.6248 15.8072 99.5231 16.5063 127.245C17.1978 154.966 26.5827 180.423 26.5827 180.423H41.1806C41.1806 180.423 48.8633 136.546 49.5776 126.28C50.2919 116.013 21.8105 95.6172 21.8105 95.6172L21.8181 95.6248Z" fill="#FFD7C1"/>
<path id="Vector_9" d="M26.0661 174.52C26.0661 174.52 23.6344 188.426 26.0661 203.199C28.4978 217.971 30.4128 223.359 30.4128 223.359H38.9314C38.9314 223.359 41.0136 205.805 42.0622 194.855C43.1033 183.904 40.3221 174.52 40.3221 174.52H26.0737H26.0661Z" fill="#FFD7C1"/>
<path id="Vector_10" d="M29.63 220.691C29.63 220.691 29.63 225.965 28.8473 230.266C28.0646 234.567 27.2819 238.481 27.411 239.522C27.5402 240.563 30.5419 241.346 32.4948 241.475C34.4478 241.604 40.0864 242.257 42.2901 240.821C44.4862 239.385 40.9679 235.608 40.8387 235.213C40.7095 234.818 38.3614 220.684 38.3614 220.684H29.63V220.691Z" fill="#FFD7C1"/>
<path id="Vector_11" d="M97.5353 233.132C96.8818 232.35 90.9317 224.659 88.1048 219.446C88.082 219.408 88.0592 219.37 88.0365 219.332C87.6641 212.706 85.7719 181.496 82.5271 174.52C82.4663 174.384 82.4815 171.838 82.4055 171.716C82.7855 158.988 86.0303 119.678 78.2868 104.305C78.2868 104.305 51.7659 113.5 50.7324 126.297C50.7324 126.297 59.0762 161.237 65.5659 175.919C65.7407 178.48 66.3106 184.407 68.1116 192.249C70.3153 201.854 77.6561 218.595 79.0163 221.658C79.0163 224.834 78.7731 229.705 78.7731 230.511C78.7731 231.651 82.1547 232.631 84.6169 235.351C86.1063 236.993 90.6126 239.128 93.3482 239.128C96.0839 239.128 99.9975 238.87 101.039 237.563C102.08 236.256 98.1737 233.915 97.5201 233.132H97.5353Z" fill="#FFD7C1" stroke="#421705" stroke-width="0.25" stroke-miterlimit="10"/>
<path id="Vector_12" d="M28.0491 41.916C28.0491 41.916 21.2403 43.717 12.9421 54.9561C2.49329 69.098 0.167969 80.2383 0.167969 80.2383L5.90529 84.9346L31.1039 61.4153L28.0491 41.916Z" fill="#FFD7C1"/>
<path id="Vector_13" d="M49.7977 8.62347C49.7977 8.62347 49.3113 12.8258 45.0786 15.9186C40.8459 19.0039 38.8702 23.2746 40.2 25.919C40.2 25.919 41.3931 29.0119 42.9889 30.3341C44.5847 31.664 42.9889 30.6685 42.9889 30.6685C42.9889 30.6685 43.8932 34.3313 42.6697 36.7706C41.4463 39.2099 42.7457 40.2814 42.7457 40.2814C42.7457 40.2814 41.2411 41.2692 39.7821 39.9774C39.7821 39.9774 39.6225 41.3528 40.1544 42.2647C40.1544 42.2647 31.0811 41.9608 28.4062 35.1748C25.7389 28.3888 27.0307 24.65 31.1495 18.6239C31.1495 18.6239 32.5249 7.64318 37.3275 3.14451C42.1302 -1.35416 47.3204 1.00916 47.3204 1.00916C47.3204 1.00916 55.0715 -3.48951 60.4212 7.71917C65.771 18.9279 61.8423 22.3627 65.4443 26.8613C69.0462 31.36 63.5597 39.4075 60.7404 41.33C57.9211 43.2526 55.6338 43.1006 55.6338 43.1006L56.3937 41.33H54.7143C54.7143 41.33 56.7737 39.1415 55.7022 37.1581C54.6307 35.1748 54.0988 31.626 54.4028 30.9953C54.7067 30.3645 57.8375 28.3888 58.2935 23.8825C58.7494 19.3838 57.4576 16.405 54.7067 14.5812C51.9558 12.7574 49.6609 9.37578 49.7825 8.62347H49.7977Z" fill="#421705"/>
<path id="Vector_14" d="M70.2244 71.2635C70.194 71.1875 70.1484 71.1191 70.1104 71.0431C71.2578 70.1996 72.0633 69.0673 72.3673 67.6083C73.8719 60.3207 69.2973 53.1244 65.0114 51.6502C58.7725 49.5072 51.2342 55.8373 49.4864 62.1445C49.38 62.1369 49.2812 62.1293 49.1748 62.1217C47.4346 56.62 40.9146 50.4723 34.4097 52.1821C30.291 53.2612 23.4822 59.842 24.9869 67.1295C25.2756 68.5126 25.5644 70.0476 26.7194 70.8227C26.6207 71.0355 26.5827 71.1495 26.5827 71.1495C26.5827 71.1495 15.64 94.2888 16.871 112.413C16.871 112.413 39.3264 107.952 49.5852 126.289L52.5336 126.486C52.5336 126.486 74.8446 110.71 78.3478 104.555C78.3478 104.555 74.2519 80.1848 70.232 71.2635H70.2244Z" fill="#E77B9B" stroke="#421705" stroke-width="0.25" stroke-miterlimit="10"/>
<path id="Vector_15" d="M96.464 107.861C96.464 107.861 97.3075 115.187 97.3075 115.544C97.3075 115.901 93.4624 119.511 93.4624 119.511L91.2738 114.723L89.1841 112.329L89.944 108.819L96.4564 107.854L96.464 107.861Z" fill="#FFD7C1"/>
<path id="Vector_16" d="M89.5488 110.648C89.5488 110.648 88.2646 114.775 88.1886 115.269C88.1126 115.763 88.1886 118.666 88.1886 118.666C88.1886 118.666 89.0321 118.286 89.374 117.176C89.716 116.067 89.9819 114.889 89.9819 114.889L91.1674 113.68L89.5488 110.648Z" fill="#FFD7C1"/>
<path id="Vector_17" d="M92.695 117.26V121.021C92.1326 121.743 91.1143 123.187 91.1675 124.053C91.2435 125.239 94.0324 121.766 94.2224 121.766L95.1419 117.26H92.7026H92.695Z" fill="#FFD7C1"/>
<path id="Vector_18" d="M35.1849 99.6993C36.0968 100.178 37.1835 100.019 37.1835 100.019C37.1835 100.019 34.3186 95.6186 33.1864 95.2691C32.0541 94.9195 24.9793 94.1292 24.9793 94.1292C19.1204 85.3674 11.111 74.873 11.111 74.873L0.160645 80.238C0.806569 88.8022 15.1461 96.6369 20.2603 99.1674C21.9853 100.634 28.7029 103.134 28.7029 103.134C28.7029 103.134 29.2272 103.567 29.9188 104.137C30.6103 104.7 32.0921 104.525 32.0921 104.525L31.2866 103.286C30.4811 102.047 29.0069 101.341 29.0069 101.341L30.0935 101.394C30.0935 101.394 30.5267 101.827 31.7425 102.526C32.9584 103.218 34.2198 102.959 34.2198 102.959L33.5663 101.789C34.2578 102.313 35.5193 101.789 35.5193 101.789C35.5193 101.789 34.3034 99.7905 33.3915 99.0078C32.4797 98.2251 31.5222 97.5716 31.5222 97.5716L33.3004 97.83C33.3004 97.83 34.2578 99.2206 35.1697 99.6993H35.1849Z" fill="#FFD7C1"/>
<path id="Vector_19" d="M28.7559 71.832C28.7559 71.832 32.6618 73.785 37.7684 74.0054C42.875 74.2258 46.8341 71.832 46.8341 71.832" stroke="#421705" stroke-width="0.25" stroke-miterlimit="10" stroke-linecap="round"/>
<path id="Vector_20" d="M54.9194 71.832C54.9194 71.832 62.0854 74.6513 68.4914 71.832" stroke="#421705" stroke-width="0.25" stroke-miterlimit="10" stroke-linecap="round"/>
<path id="Vector_21" d="M28.7559 51.2168C28.7559 51.2168 29.3182 55.2975 28.7559 55.9282" stroke="#421705" stroke-width="0.25" stroke-miterlimit="10" stroke-linecap="round"/>
<path id="Vector_22" d="M65.665 47.6289C65.665 47.6289 66.3186 49.7111 66.6453 52.4695" stroke="#421705" stroke-width="0.25" stroke-miterlimit="10" stroke-linecap="round"/>
<path id="Vector_23" d="M24.9792 67.1211L13.4133 77.9194C13.4133 77.9194 10.6776 77.2355 6.36133 78.7021" stroke="#421705" stroke-width="0.25" stroke-miterlimit="10" stroke-linecap="round"/>
<path id="Vector_24" d="M29.6527 97.1837C29.6527 97.1837 30.9825 97.1761 31.5372 97.5712L33.3154 97.8296C33.3154 97.8296 33.665 98.6731 34.7669 99.4254C35.8687 100.178 37.1606 100.352 37.1758 100.018C37.191 99.6762 34.1969 95.6866 33.1786 95.2687C32.1604 94.8431 24.9716 94.1288 24.9716 94.1288L13.4058 77.9199" stroke="#421705" stroke-width="0.25" stroke-miterlimit="10" stroke-linecap="round"/>
<path id="Vector_25" d="M29.7285 98.353C29.7285 98.353 30.0021 98.2694 31.3319 99.1661C32.6618 100.063 33.5813 101.788 33.5813 101.788C33.5813 101.788 34.7439 102.32 35.5342 101.788C35.5342 101.788 33.9384 98.5582 31.5371 97.5703" stroke="#421705" stroke-width="0.25" stroke-miterlimit="10" stroke-linecap="round"/>
<path id="Vector_26" d="M30.3823 175.021C30.3823 175.021 30.6255 176.245 31.7654 177.461" stroke="#421705" stroke-width="0.25" stroke-miterlimit="10"/>
<path id="Vector_27" d="M39.2273 175.021C39.2273 175.021 39.007 176.108 37.7075 177.461" stroke="#421705" stroke-width="0.25" stroke-miterlimit="10"/>
<path id="Vector_28" d="M33.0269 180.181C33.0269 180.181 35.6562 180.508 37.2824 179.201" stroke="#421705" stroke-width="0.25" stroke-miterlimit="10"/>
<path id="Vector_29" d="M16.8633 112.412C16.8633 112.412 15.3966 133.576 18.7934 149.838C22.0839 165.606 25.6326 177.65 25.6326 177.65C25.6326 177.65 24.3408 192.043 25.6022 199.931C26.8637 207.827 29.6298 220.684 29.6298 220.684C29.6298 220.684 29.3942 223.99 29.4018 225.821C29.4094 227.653 28.2467 233.489 28.0188 234.781C27.7908 236.072 26.5825 239.576 28.2239 240.381C29.6982 241.103 28.6647 241.035 32.5022 241.468C36.3322 241.901 39.2274 241.969 41.0132 241.468C42.8066 240.966 43.179 239.864 43.0118 238.884C42.8446 237.904 40.9904 236.262 40.8385 235.206C39.7062 227.28 38.6575 225.031 38.9235 223.344C44.1669 190.698 41.3856 179.391 41.3856 179.391C41.3856 179.391 49.8966 130.68 49.585 126.273" stroke="#421705" stroke-width="0.25" stroke-linecap="round" stroke-linejoin="round"/>
<path id="Vector_30" d="M32.1527 39.7188C32.1527 39.7188 28.6723 41.2006 28.0492 41.9149C28.0492 41.9149 22.0915 42.9864 13.4133 54.3318C4.73514 65.6773 -0.0902982 78.7174 0.168072 80.2372C0.426441 81.757 0.525226 85.8605 8.29152 91.7651C16.0578 97.6696 20.2677 99.1666 20.2677 99.1666C22.2891 100.77 28.7103 103.133 28.7103 103.133C28.7103 103.133 28.9687 103.559 29.9262 104.136C30.8837 104.706 32.0615 104.866 32.0995 104.524C32.1375 104.182 31.0813 102.997 30.0858 102.024C29.0903 101.051 27.692 100.686 27.692 100.686" stroke="#421705" stroke-width="0.25" stroke-miterlimit="10" stroke-linecap="round"/>
<path id="Vector_31" d="M29.3257 101.355L30.1084 101.393C30.1084 101.393 31.4762 102.868 32.8973 103.02C34.3183 103.172 34.2043 102.906 34.1815 102.868C34.1587 102.83 33.5812 101.789 33.5812 101.789" stroke="#421705" stroke-width="0.25" stroke-miterlimit="10" stroke-linecap="round"/>
<path id="Vector_32" d="M24.5234 94.8203C24.5234 94.8203 23.7939 96.6137 22.2437 97.5712" stroke="#421705" stroke-width="0.25" stroke-linecap="round" stroke-linejoin="round"/>
<path id="Vector_33" d="M63.0581 39.043C63.0581 39.043 68.4231 41.0415 71.136 43.8836C74.3656 47.2652 81.3112 65.2599 85.1791 77.8592C85.1791 77.8592 88.6215 83.9157 90.5745 89.4251C92.5274 94.9268 96.4562 107.853 96.4562 107.853L97.2997 115.536C97.2997 115.536 97.1173 119.404 96.4106 119.837C96.4106 119.837 96.2662 120.969 95.4759 120.977C95.4759 120.977 95.4075 121.402 94.2524 121.577C94.2524 121.577 92.3451 124.1 91.266 124.29C90.1869 124.48 92.1627 121.729 92.1627 121.729C92.1627 121.729 91.228 121.85 91.0152 121.547C90.8025 121.243 91.9271 120.619 91.9271 120.619L92.3679 120.3C92.3679 120.3 92.0943 120.277 92.1095 120.042C92.1171 119.806 92.687 119.464 92.687 119.464V117.831L91.2432 114.647L90.7265 114.107L89.9742 114.882C89.9742 114.882 89.3586 118.56 88.1808 118.659C88.1808 118.659 87.9376 116.068 88.1504 115.33C88.3555 114.586 89.8298 109.342 89.8298 109.342C89.8298 109.342 77.1165 88.7032 76.7061 81.0129L71.6831 75.1236" stroke="#421705" stroke-width="0.25" stroke-linecap="round" stroke-linejoin="round"/>
<path id="Vector_34" d="M94.9745 118.059C94.9745 118.059 94.5718 120.802 94.397 121.288" stroke="#421705" stroke-width="0.25" stroke-linecap="round" stroke-linejoin="round"/>
<path id="Vector_35" d="M96.1448 117.443C96.1448 117.443 95.8256 120.27 95.4761 120.992" stroke="#421705" stroke-width="0.25" stroke-linecap="round" stroke-linejoin="round"/>
<path id="Vector_36" d="M96.6389 117.975L96.335 119.905" stroke="#421705" stroke-width="0.25" stroke-linecap="round" stroke-linejoin="round"/>
<path id="Vector_37" d="M38.065 237.197C38.065 237.197 37.9054 237.684 38.4753 238.58C39.0453 239.477 39.1517 241.65 38.6653 241.734" stroke="#421705" stroke-width="0.25" stroke-miterlimit="10"/>
<path id="Vector_38" d="M35.8384 237.197C35.8384 237.197 35.8916 238.117 36.0816 238.801C36.2715 239.477 36.4919 241.521 35.96 241.711" stroke="#421705" stroke-width="0.25" stroke-miterlimit="10"/>
<path id="Vector_39" d="M33.908 237.197C33.908 237.197 33.8016 238.041 33.718 239.044C33.6344 240.047 33.4216 241.415 33.5584 241.704" stroke="#421705" stroke-width="0.25" stroke-miterlimit="10"/>
<path id="Vector_40" d="M30.4351 241.164C30.4351 241.164 30.3287 240.055 30.6251 239.128C30.9214 238.208 31.1114 237.068 31.1114 237.068" stroke="#421705" stroke-width="0.25" stroke-miterlimit="10"/>
<path id="Vector_41" d="M74.5938 173.311C74.5938 173.311 75.4069 176.001 76.7899 176.244" stroke="#421705" stroke-width="0.25" stroke-miterlimit="10"/>
<path id="Vector_42" d="M78.4995 178.441C78.4995 178.441 80.9388 178.571 81.4328 177.119" stroke="#421705" stroke-width="0.25" stroke-miterlimit="10"/>
<path id="Vector_43" d="M91.6919 234.5C91.6919 234.5 92.6722 235.967 94.0552 236.331C95.4383 236.696 96.0614 238.672 95.2027 239.09" stroke="#421705" stroke-width="0.25" stroke-miterlimit="10"/>
<path id="Vector_44" d="M94.9062 234.947C94.9062 234.947 96.0461 236.33 96.7756 236.619C97.5052 236.908 97.9991 238.564 96.7756 238.975" stroke="#421705" stroke-width="0.25" stroke-miterlimit="10"/>
<path id="Vector_45" d="M96.7832 234.947C96.7832 234.947 97.5127 235.966 98.2498 236.209C98.9794 236.452 99.6937 237.972 98.7894 238.656" stroke="#421705" stroke-width="0.25" stroke-miterlimit="10"/>
<path id="Vector_46" d="M98.6147 235.107C98.6147 235.107 99.2227 235.959 99.8762 236.407C100.53 236.855 100.568 238.041 100.127 238.215" stroke="#421705" stroke-width="0.25" stroke-miterlimit="10"/>
<path id="Vector_47" d="M25.9824 64.0127C25.9824 64.0127 29.326 54.3542 35.2761 53.2143C41.2262 52.0745 47.5639 61.7633 47.5639 61.7633" stroke="#421705" stroke-width="0.25" stroke-miterlimit="10" stroke-linecap="round"/>
<path id="Vector_48" d="M51.4697 62.0155C51.4697 62.0155 55.4896 54.0972 61.6981 53.1321C67.9142 52.167 70.1103 58.5807 70.1103 58.5807" stroke="#421705" stroke-width="0.25" stroke-miterlimit="10" stroke-linecap="round"/>
<path id="Vector_49" d="M43.4072 31.3145C43.4072 31.3145 45.8921 33.2674 48.453 33.7994C51.0139 34.3313 53.9472 31.6792 53.9472 31.6792" stroke="#421705" stroke-width="0.25" stroke-miterlimit="10" stroke-linecap="round"/>
<path id="Vector_50" d="M32.9048 43.8906C32.9048 43.8906 40.4735 45.0001 43.4068 45.3193" stroke="#421705" stroke-width="0.25" stroke-miterlimit="10" stroke-linecap="round"/>
<path id="Vector_51" d="M62.2984 43.1074C62.2984 43.1074 58.7192 44.1333 53.9546 44.6044" stroke="#421705" stroke-width="0.25" stroke-miterlimit="10" stroke-linecap="round"/>
<path id="Vector_52" d="M78.3403 81.6816C78.3403 81.6816 79.8829 80.6557 82.0867 80.0098" stroke="#421705" stroke-width="0.25" stroke-linecap="round" stroke-linejoin="round"/>
</g>
</svg>
