<svg width="108" height="243" viewBox="0 0 108 243" fill="none" xmlns="http://www.w3.org/2000/svg">
<g id="Group">
<path id="Vector" d="M103.342 117.303C103.342 117.303 104.016 118.064 104.813 118.623C105.609 119.183 107.245 119.721 107.245 119.721C107.245 119.721 105.257 116.205 103.212 115.093C101.318 114.067 95.6354 111.312 94.8175 110.91C94.5448 108.284 92.672 86.3708 86.0995 77.5596C86.0995 77.5596 80.7325 53.2356 78.135 47.8686C75.5376 42.5015 72.89 41.375 72.89 41.375C71.9715 43.1903 70.0127 63.9482 70.0127 63.9482L78.1566 80.5947C78.3288 82.6397 78.788 86.5143 80.0365 91.8455C81.7872 99.3149 88.9266 111.434 90.089 113.371L90.0674 113.385L90.3258 114.225C90.3258 114.225 91.0504 118.76 92.4496 120.152C93.8559 121.537 94.2075 124.78 94.8031 123.007C95.2264 121.752 94.2075 119.133 93.5761 117.719L96.1807 119.075C96.1807 119.075 98.9432 122.512 100.271 123.359C101.598 124.213 102.531 123.955 102.524 123.861C102.524 123.768 99.0939 120.396 97.9315 118.645L98.5342 118.494C98.5844 118.552 101.304 121.931 102.617 122.771C103.944 123.625 104.877 123.366 104.87 123.273C104.87 123.18 101.447 119.814 100.285 118.064L100.522 118.006C101.447 119.083 102.796 120.568 103.607 121.092C104.935 121.946 105.867 121.687 105.86 121.594C105.86 121.522 103.672 119.355 102.201 117.59L103.327 117.31L103.342 117.303Z" fill="#FFD7C1" stroke="#421705" stroke-width="0.195789" stroke-miterlimit="10"/>
<path id="Vector_2" d="M35.6505 58.6386L33.9213 40.9445C33.9213 40.9445 29.5229 40.4351 26.0788 49.6409C24.2993 54.3909 21.8884 70.8365 20.4104 77.6099C15.8613 86.0551 13.1275 102.745 12.8835 105.091C12.0656 105.486 6.3828 108.241 4.48854 109.274C2.44361 110.386 0.456055 113.902 0.456055 113.902C0.456055 113.902 2.09919 113.364 2.88846 112.804C3.68491 112.245 4.35937 111.484 4.35937 111.484L5.48589 111.764C4.01497 113.529 1.8337 115.689 1.82652 115.768C1.82652 115.868 2.75931 116.119 4.07955 115.265C4.89035 114.742 6.23928 113.256 7.16489 112.18L7.40168 112.237C6.2393 113.995 2.81671 117.361 2.81671 117.447C2.81671 117.547 3.7495 117.798 5.06974 116.944C6.3828 116.098 9.10221 112.725 9.15244 112.668L9.75515 112.819C8.59277 114.569 5.17019 117.949 5.16302 118.035C5.16302 118.136 6.09578 118.387 7.41602 117.533C8.74344 116.679 11.5059 113.249 11.5059 113.249L14.1105 111.893C13.4791 113.307 12.4602 115.926 12.8835 117.181C13.4791 118.953 13.8378 115.717 15.237 114.325C16.6433 112.941 17.3609 108.399 17.3609 108.399L17.6192 107.559L17.5977 107.545C18.76 105.6 25.8994 93.4886 27.6501 86.0121C27.93 84.8066 28.1739 83.6801 28.3748 82.6253L35.6361 58.6171L35.6505 58.6386Z" fill="#FFD7C1" stroke="#421705" stroke-width="0.195789" stroke-miterlimit="10"/>
<path id="Vector_3" d="M43.7659 4.09226C43.7659 4.09226 39.1378 5.51295 36.9853 12.1213C34.8327 18.7297 37.2364 24.8358 41.0393 28.3445C44.8422 31.8532 43.7659 34.9529 43.7659 34.9529C43.7659 34.9529 44.9211 33.8622 44.6771 32.3626C44.6771 32.3626 45.6243 34.1708 45.6099 35.5269C45.6099 35.5269 46.4996 34.5367 46.4996 33.6183C46.4996 33.6183 47.6333 34.7161 48.2217 37.2202H57.9943C57.9943 37.2202 58.3244 34.4506 59.1495 33.3671C59.1495 33.3671 59.7307 35.1753 60.2258 35.5269C60.2258 35.5269 60.5846 31.9895 62.8232 28.6602C62.8232 28.6602 62.9524 30.4827 62.2134 32.8649C62.2134 32.8649 65.4996 29.7293 65.8081 24.5201C65.8081 24.5201 66.6118 26.9669 66.4898 28.8468C66.4898 28.8468 70.9528 25.8977 69.0944 13.664C67.236 1.43025 56.8104 0.117188 52.0389 0.117188C47.2674 0.117188 43.7659 4.09226 43.7659 4.09226Z" fill="#421705"/>
<path id="Vector_4" d="M58.0154 112.661C58.0154 112.661 51.3855 92.664 35.0045 98.5692C35.0045 98.5692 27.7647 108.916 32.3353 128.346C35.1767 140.422 39.6038 151.967 42.5528 158.985C41.7635 160.283 36.4324 169.288 32.9165 181.149C29.1136 193.978 27.3844 221.538 27.3844 221.538C26.6166 224.681 23.3232 238.335 23.3232 239.95C23.3232 241.787 25.892 241.787 29.3719 241.966C32.8519 242.145 37.4369 241.6 38.1688 240.682C38.9006 239.763 36.3319 235.917 35.5498 232.796C34.8466 229.998 35.4063 221.423 35.5283 219.694C38.2333 214.126 46.3987 196.949 50.6967 183.969C55.8915 168.276 55.4467 160.656 55.4467 160.656L58.0011 112.661H58.0154Z" fill="#FFD7C1" stroke="#421705" stroke-width="0.195789" stroke-miterlimit="10"/>
<path id="Vector_5" d="M73.1838 99.3649C73.1838 99.3649 62.2775 97.8652 54.8153 112.661L54.2987 165.068C54.2987 165.068 50.094 177.259 51.199 189.141C51.8806 196.46 53.3228 206.089 54.3274 212.418L54.2987 218.725C53.7533 222.678 52.3613 232.307 51.364 234.431C50.094 237.122 48.5154 238.392 50.094 239.655C51.6797 240.925 55.1597 241.556 59.1204 241.083C63.0811 240.609 66.4033 240.293 65.614 237.595C65.0041 235.522 63.3681 224.465 62.6434 219.471C63.6623 216.206 66.1091 207.122 66.4104 194.207C66.7907 177.826 64.6668 166.338 64.6668 166.338C64.6668 166.338 71.1963 153.617 73.7722 134.566C76.3409 115.516 73.1838 99.3649 73.1838 99.3649Z" fill="#FFD7C1" stroke="#421705" stroke-width="0.195789" stroke-miterlimit="10"/>
<path id="Vector_6" d="M47.3604 30.9056C47.3604 30.9056 48.1712 35.3614 47.5183 37.2126C46.8654 39.0638 44.6841 40.4845 44.6841 40.4845L52.6055 43.5196L59.9529 40.5993C59.9529 40.5993 57.8721 38.4898 57.4847 36.7749C57.0972 35.0601 57.4847 31.8025 57.4847 31.8025L47.3533 30.8984L47.3604 30.9056Z" fill="#FFD7C1"/>
<path id="Vector_7" d="M61.4166 10.6008C59.7878 9.20886 55.9347 7.96754 52.3256 8.62766C48.7165 7.96754 44.8634 9.20886 43.2346 10.6008C40.3215 13.0835 41.2542 22.5548 42.3592 26.5801C43.4068 30.3973 48.9676 35.1257 52.0745 35.3841C52.0745 35.3841 52.0888 35.3841 52.096 35.3841C52.1175 35.3841 52.1462 35.3841 52.1677 35.3841C52.2251 35.3841 52.2754 35.3841 52.3328 35.3841C52.3902 35.3841 52.4404 35.3841 52.4978 35.3841C52.5193 35.3841 52.548 35.3841 52.5695 35.3841C52.5695 35.3841 52.5839 35.3841 52.5911 35.3841C55.6979 35.1329 61.2516 30.3973 62.3063 26.5801C63.4113 22.5476 64.3441 13.0835 61.4309 10.6008H61.4166Z" fill="#FFD7C1" stroke="#421705" stroke-width="0.195789" stroke-miterlimit="10"/>
<path id="Vector_8" d="M71.9215 52.3601L72.9116 41.5399L57.3343 37.3711L51.3142 40.9515L47.5401 37.3711L32.6587 41.2816L30.542 52.5323L35.5575 89.9296C35.5575 89.9296 33.8785 99.0062 31.5896 113.809L53.0506 113.027L63.0672 99.9605L73.1986 99.5156C69.7761 86.3778 69.1159 85.1437 69.1159 85.1437L71.9143 52.3529L71.9215 52.3601Z" fill="#FFD7C1"/>
<path id="Vector_9" d="M59.9603 8.44832C52.2038 4.96116 45.1363 6.91282 43.5218 7.65187C41.9074 8.39091 37.8678 15.7957 40.8311 20.4381C40.8311 20.4381 46.0116 16.3339 47.7624 12.9687C49.5131 9.60352 49.427 8.47702 49.427 8.47702C49.427 8.47702 50.9267 11.957 54.9591 14.784C58.9988 17.6111 65.6574 18.2138 65.6574 18.2138C65.6574 18.2138 67.7167 11.9355 59.9603 8.44832ZM52.5554 9.94076C55.1744 10.443 63.3613 16.9366 63.3613 16.9366C56.7601 15.5231 52.5554 9.94076 52.5554 9.94076Z" fill="#421705"/>
<path id="Vector_10" d="M37.4515 40.0833C37.4515 40.0833 36.6335 48.2702 35.6002 50.595C34.5598 52.9269 32.1346 55.7396 30.9938 61.6807C29.6018 68.942 33.3759 73.7135 33.3759 73.7135L35.1482 86.9231L33.6271 101.697C33.6271 101.697 36.1456 98.2384 43.2993 102.457C50.4601 106.676 51.0628 113.235 54.794 113.651C59.9242 114.225 58.9628 100.908 73.1697 99.3578C73.1697 99.3578 71.4189 88.8604 70.0054 86.3419L70.1991 75.3997C70.1991 75.3997 73.5643 69.3654 73.6648 63.1444C73.7437 58.1792 70.8736 54.649 70.0126 52.2596C68.9794 49.3824 68.3121 40.1479 68.3121 40.1479L64.3298 39.0859C64.3298 39.0859 66.7622 49.8057 61.8615 56.9666C56.9609 64.1274 46.5066 61.6807 41.8929 54.5127C39.9628 51.5134 40.3789 39.2438 40.3789 39.2438L37.4586 40.0761L37.4515 40.0833Z" fill="#E77B9B" stroke="#421705" stroke-width="0.195789" stroke-miterlimit="10"/>
<path id="Vector_11" d="M55.4614 166.646C55.4614 166.646 55.77 168.577 56.0283 169.739" stroke="#421705" stroke-width="0.195789" stroke-linecap="round" stroke-linejoin="round"/>
<path id="Vector_12" d="M62.2778 166.646L61.1011 169.739" stroke="#421705" stroke-width="0.195789" stroke-linecap="round" stroke-linejoin="round"/>
<path id="Vector_13" d="M56.6953 172.638C56.6953 172.638 59.1564 173.097 60.3332 172.279" stroke="#421705" stroke-width="0.195789" stroke-linecap="round" stroke-linejoin="round"/>
<path id="Vector_14" d="M45.5166 160.748L46.9014 163.776" stroke="#421705" stroke-width="0.195789" stroke-linecap="round" stroke-linejoin="round"/>
<path id="Vector_15" d="M47.5684 166.646C47.5684 166.646 49.2115 167.264 51.1058 166.646" stroke="#421705" stroke-width="0.195789" stroke-linecap="round" stroke-linejoin="round"/>
<path id="Vector_16" d="M33.9355 220.23L30.4771 220.69" stroke="#421705" stroke-width="0.195789" stroke-linecap="round" stroke-linejoin="round"/>
<path id="Vector_17" d="M57.1548 220.691L60.3836 221.151" stroke="#421705" stroke-width="0.195789" stroke-linecap="round" stroke-linejoin="round"/>
<path id="Vector_18" d="M34.3374 237.129C34.3374 237.129 34.6818 238.858 35.22 239.669C35.7581 240.48 35.428 241.57 35.428 241.57" stroke="#421705" stroke-width="0.195789" stroke-linecap="round" stroke-linejoin="round"/>
<path id="Vector_19" d="M32.2422 237.488C32.2422 237.488 32.3929 238.679 32.3929 239.756V241.958" stroke="#421705" stroke-width="0.195789" stroke-linecap="round" stroke-linejoin="round"/>
<path id="Vector_20" d="M29.9389 237.797C29.9389 237.797 30.1326 237.991 29.7452 239.433C29.3577 240.875 29.6088 242.002 29.6088 242.002" stroke="#421705" stroke-width="0.195789" stroke-linecap="round" stroke-linejoin="round"/>
<path id="Vector_21" d="M27.4132 237.639C27.4132 237.639 27.3558 238.622 26.8535 239.461C26.3512 240.308 26.423 241.807 26.423 241.807" stroke="#421705" stroke-width="0.195789" stroke-linecap="round" stroke-linejoin="round"/>
<path id="Vector_22" d="M53.0503 240.752C53.0503 240.752 52.6413 239.934 52.9211 239.037C53.201 238.14 53.818 237.423 53.9472 236.555" stroke="#421705" stroke-width="0.195789" stroke-linecap="round" stroke-linejoin="round"/>
<path id="Vector_23" d="M55.4111 241.204C55.4111 241.204 55.8703 240.164 55.7914 239.159C55.7125 238.162 56.0497 237.057 56.0497 237.057" stroke="#421705" stroke-width="0.195789" stroke-linecap="round" stroke-linejoin="round"/>
<path id="Vector_24" d="M58.4316 241.154C58.4316 241.154 58.7904 240.143 58.7402 239.267C58.6899 238.399 58.5895 237.064 58.5895 237.064" stroke="#421705" stroke-width="0.195789" stroke-linecap="round" stroke-linejoin="round"/>
<path id="Vector_25" d="M61.6748 240.753C61.6748 240.753 61.8399 239.547 61.6748 238.78C61.5098 238.012 61.23 237.165 61.23 236.936" stroke="#421705" stroke-width="0.195789" stroke-linecap="round" stroke-linejoin="round"/>
<path id="Vector_26" d="M33.4907 41.0592L47.547 37.3711" stroke="#421705" stroke-width="0.195789" stroke-miterlimit="10"/>
<path id="Vector_27" d="M57.6855 37.3711C57.6855 37.3711 71.5983 40.7793 72.8898 41.382" stroke="#421705" stroke-width="0.195789" stroke-miterlimit="10"/>
<path id="Vector_28" d="M47.8271 33.4395C47.8271 33.4395 48.1643 37.637 46.5068 39.2155" stroke="#421705" stroke-width="0.195789" stroke-miterlimit="10"/>
<path id="Vector_29" d="M57.2693 33.1016C57.2693 33.1016 57.1115 36.8542 58.4604 39.0929" stroke="#421705" stroke-width="0.195789" stroke-miterlimit="10"/>
<path id="Vector_30" d="M25.0957 80.0781C25.0957 80.0781 26.5594 81.2333 27.1693 82.2307" stroke="#421705" stroke-width="0.195789" stroke-linecap="round" stroke-linejoin="round"/>
<path id="Vector_31" d="M82.2174 79.0586C82.2174 79.0586 79.3473 80.0775 78.8379 81.1609" stroke="#421705" stroke-width="0.195789" stroke-linecap="round" stroke-linejoin="round"/>
<path id="Vector_32" d="M36.3965 87.7695L38.4486 88.4871" stroke="#421705" stroke-width="0.195789" stroke-linecap="round" stroke-linejoin="round"/>
<path id="Vector_33" d="M68.7857 87.2539L66.7407 88.1293" stroke="#421705" stroke-width="0.195789" stroke-linecap="round" stroke-linejoin="round"/>
<path id="Vector_34" d="M35.6504 74.2369C35.6504 74.2369 37.6308 75.5715 42.1368 74.9545C46.65 74.3374 49.4268 72.9023 49.4268 72.9023" stroke="#421705" stroke-width="0.195789" stroke-linecap="round" stroke-linejoin="round"/>
<path id="Vector_35" d="M54.9517 72.9023C54.9517 72.9023 61.1008 75.8944 68.7927 75.1123" stroke="#421705" stroke-width="0.195789" stroke-linecap="round" stroke-linejoin="round"/>
<path id="Vector_36" d="M42.5386 58.4014C42.5386 58.4014 45.0068 62.0392 52.591 62.2473C60.1752 62.4554 63.9709 57.5332 63.9709 57.5332" stroke="#421705" stroke-width="0.195789" stroke-linecap="round" stroke-linejoin="round"/>
<path id="Vector_37" d="M49.0537 51.1758C49.0537 51.1758 52.9929 54.7849 53.0001 61.257" stroke="#421705" stroke-width="0.195789" stroke-linecap="round" stroke-linejoin="round"/>
<path id="Vector_38" d="M56.5377 52.1523C56.5377 52.1523 53.2515 54.9148 52.4048 57.0458" stroke="#421705" stroke-width="0.195789" stroke-linecap="round" stroke-linejoin="round"/>
</g>
</svg>
