<svg width="243" height="243" viewBox="0 0 243 243" fill="none" xmlns="http://www.w3.org/2000/svg">
<circle cx="121.135" cy="121.135" r="121.135" fill="url(#paint0_linear_4069_1558)"/>
<path d="M61.9457 179.879C67.1516 181.974 73.0765 179.46 75.1735 174.259L104.791 100.859L117.22 134.44H103.566V146.85H121.814L131.853 173.98C133.371 178.077 137.259 180.617 141.386 180.617C142.558 180.617 143.749 180.411 144.914 179.986C150.18 178.037 152.87 172.197 150.926 166.936L114.737 69.1538C113.286 65.2231 109.551 62.5826 105.351 62.5228C101.19 62.4563 97.3487 64.9903 95.7709 68.8811L56.3137 166.657C54.2167 171.858 56.7331 177.777 61.939 179.872L61.9457 179.879Z" fill="white"/>
<path d="M172.741 89.4264L159.407 94.7272L166.87 113.47L180.211 108.162C182.8 107.131 184.731 105.156 185.749 102.795C186.775 100.427 186.881 97.6603 185.856 95.0731C183.799 89.8919 177.941 87.3646 172.748 89.433L172.741 89.4264Z" fill="white"/>
<path d="M143.204 122.881L154.541 151.347L158.961 149.591C165.598 146.95 168.84 139.435 166.204 132.804L159.647 116.343L152.191 97.6135L145.547 80.9329C145.028 79.6293 144.315 78.4521 143.457 77.4145C143.224 77.1485 142.991 76.8824 142.738 76.6297C141.553 75.4392 140.155 74.4881 138.637 73.8363C137.119 73.1845 135.475 72.8253 133.797 72.7788C133.444 72.7655 133.091 72.7788 132.738 72.7987C131.394 72.8852 130.042 73.1778 128.744 73.6966L124.324 75.4525L135.747 104.138L143.21 122.881H143.204Z" fill="white"/>
<defs>
<linearGradient id="paint0_linear_4069_1558" x1="121.135" y1="0" x2="121.135" y2="242.271" gradientUnits="userSpaceOnUse">
<stop stop-color="#EC9DB2"/>
<stop offset="1" stop-color="#E16891"/>
</linearGradient>
</defs>
</svg>
