<svg width="269" height="242" viewBox="0 0 269 242" fill="none" xmlns="http://www.w3.org/2000/svg">
<path d="M13.0464 240.314C23.7066 244.604 35.8391 239.456 40.1332 228.806L100.782 78.5038L126.233 147.267H98.2736V172.681H135.639L156.196 228.234C159.304 236.623 167.265 241.826 175.717 241.826C178.116 241.826 180.556 241.403 182.942 240.532C193.725 236.541 199.232 224.584 195.251 213.811L121.148 13.581C118.176 5.53202 110.529 0.125191 101.927 0.00261773C93.4069 -0.133575 85.5413 5.05535 82.3105 13.0226L1.51378 213.239C-2.7803 223.889 2.37259 236.01 13.0328 240.3L13.0464 240.314Z" fill="white"/>
<path d="M239.924 55.0939L212.619 65.9484L227.9 104.327L255.219 93.4593C260.522 91.3483 264.475 87.3034 266.561 82.4686C268.66 77.6201 268.878 71.9545 266.779 66.6566C262.566 56.0473 250.57 50.872 239.937 55.1075L239.924 55.0939Z" fill="white"/>
<path d="M179.439 123.597L202.655 181.887L211.706 178.292C225.297 172.885 231.936 157.495 226.538 143.917L213.11 110.209L197.843 71.8573L184.238 37.7003C183.175 35.031 181.716 32.6203 179.957 30.4957C179.48 29.951 179.003 29.4062 178.485 28.8887C176.059 26.4508 173.196 24.5033 170.088 23.1686C166.98 21.8339 163.613 21.0985 160.177 21.0032C159.455 20.9759 158.732 21.0032 158.01 21.044C155.256 21.2211 152.489 21.8203 149.831 22.8826L140.779 26.4781L164.172 85.2178L179.453 123.597H179.439Z" fill="white"/>
</svg>
