<svg width="277" height="250" viewBox="0 0 277 250" fill="none" xmlns="http://www.w3.org/2000/svg">
<path d="M13.4509 247.764C24.4416 252.187 36.9502 246.88 41.3774 235.899L103.906 80.9377L130.146 151.833H101.32V178.034H139.844L161.038 235.31C164.243 243.959 172.451 249.323 181.165 249.323C183.638 249.323 186.154 248.888 188.614 247.989C199.731 243.875 205.409 231.546 201.305 220.44L124.904 14.002C121.84 5.70353 113.955 0.129072 105.087 0.00269889C96.3028 -0.137716 88.1933 5.21208 84.8624 13.4263L1.56071 219.85C-2.86649 230.83 2.44614 243.327 13.4368 247.75L13.4509 247.764Z" fill="#EA81A0"/>
<path d="M247.361 56.7995L219.21 67.9905L234.965 107.559L263.131 96.3543C268.598 94.1779 272.674 90.0076 274.824 85.0228C276.988 80.0241 277.213 74.1828 275.049 68.7207C270.706 57.7824 258.338 52.4466 247.375 56.8135L247.361 56.7995Z" fill="#EA81A0"/>
<path d="M185.002 127.428L208.937 187.526L218.27 183.819C232.282 178.244 239.127 162.377 233.561 148.378L219.717 113.625L203.976 74.0847L189.95 38.8687C188.853 36.1166 187.35 33.6312 185.537 31.4408C185.045 30.8791 184.553 30.3175 184.019 29.7839C181.517 27.2705 178.565 25.2625 175.361 23.8865C172.157 22.5104 168.685 21.7522 165.143 21.6539C164.398 21.6258 163.653 21.6539 162.909 21.696C160.07 21.8785 157.216 22.4964 154.476 23.5916L145.144 27.2986L169.261 87.8594L185.016 127.428H185.002Z" fill="#EA81A0"/>
</svg>
