<svg width="236" height="236" viewBox="0 0 236 236" fill="none" xmlns="http://www.w3.org/2000/svg">
<path d="M55.3371 175.149C61.3323 177.562 68.1554 174.667 70.5704 168.677L104.678 84.1496L118.992 122.821H103.268V137.113H124.282L135.843 168.356C137.59 173.074 142.068 176 146.821 176C148.17 176 149.542 175.762 150.884 175.272C156.948 173.028 160.046 166.303 157.807 160.245L116.132 47.6378C114.461 43.1111 110.16 40.0704 105.322 40.0015C100.531 39.9249 96.1073 42.8431 94.2904 47.3237L48.8513 159.923C46.4364 165.912 49.3343 172.729 55.3295 175.142L55.3371 175.149Z" fill="white"/>
<path d="M182.93 70.9841L167.574 77.0885L176.168 98.6724L191.532 92.5603C194.514 91.3731 196.737 89.0983 197.91 86.3792C199.091 83.6525 199.213 80.4663 198.033 77.4868C195.664 71.5202 188.917 68.6097 182.938 70.9917L182.93 70.9841Z" fill="white"/>
<path d="M148.914 109.51L161.97 142.292L167.06 140.27C174.704 137.229 178.437 128.574 175.401 120.938L167.85 101.981L159.264 80.4126L151.612 61.2031C151.014 59.7019 150.194 58.3462 149.205 57.1513C148.937 56.845 148.668 56.5386 148.377 56.2475C147.013 54.8765 145.403 53.7812 143.655 53.0306C141.907 52.28 140.013 51.8664 138.081 51.8128C137.675 51.7975 137.268 51.8128 136.862 51.8358C135.314 51.9354 133.757 52.2724 132.262 52.8698L127.172 54.8918L140.327 87.9263L148.921 109.51H148.914Z" fill="white"/>
<circle cx="118" cy="118" r="117" stroke="white" stroke-width="2"/>
</svg>
